%
M48
M72
T01C0.0150
T02C0.0157
T03C0.0400
T04C0.1300
%
T01
X6875Y4875
X8875Y4875
X9335Y5725
X10335Y5725
X9875Y4875
X10875Y4875
X10205Y7385
X9185Y7355
X7775Y7735
X7335Y7355
X6335Y7325
X9875Y10875
X15535Y7325
X16535Y7355
X16975Y7735
X18385Y7355
X19405Y7385
X19535Y5725
X19075Y4875
X20075Y4875
X18535Y5725
X18075Y4875
X16075Y4875
X19075Y10875
X24735Y7325
X25735Y7355
X26175Y7735
X27585Y7355
X28605Y7385
X28735Y5725
X28275Y4875
X27275Y4875
X27735Y5725
X29275Y4875
X25275Y4875
X28275Y10875
X28275Y15075
X27275Y15075
X27735Y15925
X28735Y15925
X29275Y15075
X25275Y15075
X24735Y17525
X25735Y17555
X26175Y17935
X27585Y17555
X28605Y17585
X28275Y21075
X28275Y25275
X27275Y25275
X27735Y26125
X28735Y26125
X29275Y25275
X28605Y27785
X27585Y27755
X26175Y28135
X25735Y27755
X24735Y27725
X25275Y25275
X20075Y25275
X19075Y25275
X19535Y26125
X18535Y26125
X18075Y25275
X16075Y25275
X15535Y27725
X16535Y27755
X16975Y28135
X18385Y27755
X19405Y27785
X19075Y31275
X19075Y35475
X20075Y35475
X19535Y36325
X18535Y36325
X18075Y35475
X16075Y35475
X15535Y37925
X16535Y37955
X16975Y38335
X18385Y37955
X19405Y37985
X19075Y41475
X24735Y37925
X25735Y37955
X26175Y38335
X27585Y37955
X28605Y37985
X28735Y36325
X27735Y36325
X27275Y35475
X28275Y35475
X29275Y35475
X25275Y35475
X28275Y31275
X33935Y27725
X34935Y27755
X35375Y28135
X36785Y27755
X37805Y27785
X37935Y26125
X36935Y26125
X36475Y25275
X37475Y25275
X38475Y25275
X34475Y25275
X37475Y21075
X37805Y17585
X36785Y17555
X35375Y17935
X34935Y17555
X33935Y17525
X36935Y15925
X37935Y15925
X37475Y15075
X36475Y15075
X38475Y15075
X34475Y15075
X37475Y10875
X37805Y7385
X36785Y7355
X35375Y7735
X34935Y7355
X33935Y7325
X36935Y5725
X36475Y4875
X37475Y4875
X37935Y5725
X38475Y4875
X34475Y4875
X43135Y7325
X44135Y7355
X44575Y7735
X45985Y7355
X47005Y7385
X47135Y5725
X46675Y4875
X45675Y4875
X46135Y5725
X47675Y4875
X43675Y4875
X46675Y10875
X46675Y15075
X45675Y15075
X46135Y15925
X47135Y15925
X47675Y15075
X47005Y17585
X45985Y17555
X44575Y17935
X44135Y17555
X43135Y17525
X43675Y15075
X46675Y21075
X46675Y25275
X45675Y25275
X46135Y26125
X47135Y26125
X47675Y25275
X47005Y27785
X45985Y27755
X44575Y28135
X44135Y27755
X43135Y27725
X43675Y25275
X46675Y31275
X46675Y35475
X45675Y35475
X46135Y36325
X47135Y36325
X47675Y35475
X47005Y37985
X45985Y37955
X44575Y38335
X44135Y37955
X43135Y37925
X43675Y35475
X38475Y35475
X37475Y35475
X36475Y35475
X36935Y36325
X37935Y36325
X37805Y37985
X36785Y37955
X35375Y38335
X34935Y37955
X33935Y37925
X34475Y35475
X37475Y31275
X37475Y41475
X37475Y45675
X37935Y46525
X36935Y46525
X36475Y45675
X38475Y45675
X37805Y48185
X36785Y48155
X35375Y48535
X34935Y48155
X33935Y48125
X34475Y45675
X29275Y45675
X28275Y45675
X28735Y46525
X27735Y46525
X27275Y45675
X25275Y45675
X24735Y48125
X25735Y48155
X26175Y48535
X27585Y48155
X28605Y48185
X28275Y51675
X19075Y51675
X16975Y48535
X16535Y48155
X15535Y48125
X16075Y45675
X18075Y45675
X18535Y46525
X19535Y46525
X19075Y45675
X20075Y45675
X19405Y48185
X18385Y48155
X10875Y45675
X9875Y45675
X10335Y46525
X9335Y46525
X8875Y45675
X6875Y45675
X6335Y48125
X7335Y48155
X7775Y48535
X9185Y48155
X10205Y48185
X9875Y51675
X9875Y41475
X7775Y38335
X7335Y37955
X6335Y37925
X9185Y37955
X10205Y37985
X10335Y36325
X9335Y36325
X8875Y35475
X9875Y35475
X10875Y35475
X6875Y35475
X9875Y31275
X7775Y28135
X7335Y27755
X6335Y27725
X9185Y27755
X10205Y27785
X10335Y26125
X9335Y26125
X8875Y25275
X9875Y25275
X10875Y25275
X6875Y25275
X9875Y21075
X10205Y17585
X9185Y17555
X7775Y17935
X7335Y17555
X6335Y17525
X9335Y15925
X10335Y15925
X9875Y15075
X8875Y15075
X10875Y15075
X6875Y15075
X15535Y17525
X16535Y17555
X16975Y17935
X18385Y17555
X19405Y17585
X19535Y15925
X18535Y15925
X18075Y15075
X19075Y15075
X20075Y15075
X16075Y15075
X19075Y21075
X28275Y41475
X37475Y51675
X43135Y48125
X44135Y48155
X44575Y48535
X45985Y48155
X47005Y48185
X47135Y46525
X46675Y45675
X45675Y45675
X46135Y46525
X47675Y45675
X43675Y45675
X46675Y41475
X52335Y37925
X53335Y37955
X53775Y38335
X55185Y37955
X56205Y37985
X56335Y36325
X55875Y35475
X54875Y35475
X55335Y36325
X56875Y35475
X52875Y35475
X55875Y31275
X53775Y28135
X53335Y27755
X52335Y27725
X55185Y27755
X56205Y27785
X56335Y26125
X55875Y25275
X54875Y25275
X55335Y26125
X56875Y25275
X52875Y25275
X55875Y21075
X56205Y17585
X55185Y17555
X53775Y17935
X53335Y17555
X52335Y17525
X55335Y15925
X54875Y15075
X55875Y15075
X56875Y15075
X56335Y15925
X52875Y15075
X55875Y10875
X56205Y7385
X55185Y7355
X53775Y7735
X53335Y7355
X52335Y7325
X55335Y5725
X54875Y4875
X55875Y4875
X56335Y5725
X56875Y4875
X52875Y4875
X61535Y7325
X62535Y7355
X62975Y7735
X64385Y7355
X65405Y7385
X65535Y5725
X65075Y4875
X64075Y4875
X64535Y5725
X66075Y4875
X62075Y4875
X65075Y10875
X70735Y7325
X71735Y7355
X72175Y7735
X73585Y7355
X74605Y7385
X74735Y5725
X74275Y4875
X73275Y4875
X73735Y5725
X75275Y4875
X71275Y4875
X74275Y10875
X74275Y15075
X73275Y15075
X73735Y15925
X74735Y15925
X75275Y15075
X71275Y15075
X70735Y17525
X71735Y17555
X72175Y17935
X73585Y17555
X74605Y17585
X74275Y21075
X74275Y25275
X73275Y25275
X73735Y26125
X74735Y26125
X75275Y25275
X74605Y27785
X73585Y27755
X72175Y28135
X71735Y27755
X70735Y27725
X71275Y25275
X66075Y25275
X65075Y25275
X64075Y25275
X64535Y26125
X65535Y26125
X65405Y27785
X64385Y27755
X62975Y28135
X62535Y27755
X61535Y27725
X62075Y25275
X65075Y21075
X65405Y17585
X64385Y17555
X62975Y17935
X62535Y17555
X61535Y17525
X64535Y15925
X65535Y15925
X65075Y15075
X64075Y15075
X66075Y15075
X62075Y15075
X65075Y31275
X65075Y35475
X64075Y35475
X64535Y36325
X65535Y36325
X66075Y35475
X65405Y37985
X64385Y37955
X62975Y38335
X62535Y37955
X61535Y37925
X62075Y35475
X65075Y41475
X70735Y37925
X71735Y37955
X72175Y38335
X73585Y37955
X74605Y37985
X74735Y36325
X73735Y36325
X73275Y35475
X74275Y35475
X75275Y35475
X71275Y35475
X74275Y31275
X74275Y41475
X74275Y45675
X74735Y46525
X73735Y46525
X73275Y45675
X71275Y45675
X70735Y48125
X71735Y48155
X72175Y48535
X73585Y48155
X74605Y48185
X75275Y45675
X74275Y51675
X65075Y51675
X62975Y48535
X62535Y48155
X61535Y48125
X64385Y48155
X65405Y48185
X65535Y46525
X65075Y45675
X64075Y45675
X64535Y46525
X66075Y45675
X62075Y45675
X56875Y45675
X55875Y45675
X56335Y46525
X55335Y46525
X54875Y45675
X52875Y45675
X52335Y48125
X53335Y48155
X53775Y48535
X55185Y48155
X56205Y48185
X55875Y51675
X46675Y51675
X55875Y41475
T02
X54545Y39965
X54125Y39335
X54375Y38185
X52725Y39669
X51625Y39085
X50385Y38875
X51795Y37925
X50935Y36475
X52335Y36325
X53335Y36325
X57055Y38995
X57325Y37885
X59585Y38875
X60825Y39085
X61925Y39669
X63325Y39335
X63575Y38185
X63745Y39965
X62655Y41405
X60605Y41255
X60995Y37925
X60135Y36475
X61535Y36325
X62535Y36325
X66525Y37885
X66255Y38995
X68785Y38875
X70025Y39085
X70195Y37925
X69335Y36475
X70735Y36325
X71735Y36325
X72775Y38185
X72525Y39335
X71125Y39669
X72945Y39965
X71855Y41405
X69805Y41255
X75455Y38995
X75725Y37885
X71855Y31205
X72945Y29765
X72525Y29135
X71125Y29469
X70025Y28885
X68785Y28675
X70195Y27725
X69335Y26275
X70735Y26125
X71735Y26125
X72775Y27985
X75455Y28795
X75725Y27685
X69805Y31055
X66255Y28795
X66525Y27685
X63575Y27985
X63325Y29135
X63745Y29765
X62655Y31205
X61925Y29469
X60825Y28885
X60995Y27725
X60135Y26275
X61535Y26125
X62535Y26125
X59585Y28675
X57325Y27685
X57055Y28795
X54545Y29765
X54125Y29135
X54375Y27985
X52725Y29469
X51625Y28885
X50385Y28675
X51795Y27725
X50935Y26275
X52335Y26125
X53335Y26125
X48125Y27685
X47855Y28795
X45345Y29765
X44925Y29135
X43525Y29469
X42425Y28885
X41185Y28675
X42595Y27725
X41735Y26275
X43135Y26125
X44135Y26125
X45175Y27985
X44255Y31205
X42205Y31055
X38655Y28795
X38925Y27685
X35975Y27985
X35725Y29135
X36145Y29765
X35055Y31205
X33005Y31055
X34325Y29469
X33225Y28885
X33395Y27725
X32535Y26275
X33935Y26125
X34935Y26125
X31985Y28675
X29725Y27685
X29455Y28795
X26945Y29765
X26525Y29135
X25125Y29469
X24025Y28885
X22785Y28675
X24195Y27725
X23335Y26275
X24735Y26125
X25735Y26125
X26775Y27985
X25855Y31205
X23805Y31055
X20255Y28795
X20525Y27685
X17575Y27985
X17325Y29135
X17745Y29765
X16655Y31205
X15925Y29469
X14825Y28885
X14995Y27725
X14135Y26275
X15535Y26125
X16535Y26125
X13585Y28675
X11325Y27685
X11055Y28795
X8545Y29765
X8125Y29135
X8375Y27985
X6725Y29469
X5625Y28885
X4385Y28675
X5795Y27725
X4935Y26275
X6335Y26125
X7335Y26125
X7455Y31205
X5405Y31055
X6335Y36325
X7335Y36325
X5795Y37925
X5625Y39085
X6725Y39669
X8125Y39335
X8375Y38185
X8545Y39965
X7455Y41405
X5405Y41255
X4385Y38875
X4935Y36475
X11055Y38995
X11325Y37885
X13585Y38875
X14825Y39085
X15925Y39669
X17325Y39335
X17575Y38185
X17745Y39965
X16655Y41405
X14605Y41255
X14995Y37925
X14135Y36475
X15535Y36325
X16535Y36325
X20525Y37885
X20255Y38995
X22785Y38875
X24025Y39085
X24195Y37925
X23335Y36475
X24735Y36325
X25735Y36325
X26775Y38185
X26525Y39335
X25125Y39669
X26945Y39965
X25855Y41405
X23805Y41255
X29455Y38995
X29725Y37885
X31985Y38875
X33225Y39085
X34325Y39669
X35725Y39335
X35975Y38185
X36145Y39965
X35055Y41405
X33005Y41255
X33395Y37925
X32535Y36475
X33935Y36325
X34935Y36325
X38925Y37885
X38655Y38995
X41185Y38875
X42425Y39085
X42595Y37925
X41735Y36475
X43135Y36325
X44135Y36325
X45175Y38185
X44925Y39335
X43525Y39669
X45345Y39965
X44255Y41405
X42205Y41255
X47855Y38995
X48125Y37885
X51405Y41255
X53455Y41405
X53335Y46525
X52335Y46525
X50935Y46675
X51795Y48125
X51625Y49285
X52725Y49869
X54125Y49535
X54545Y50165
X54375Y48385
X57055Y49195
X57325Y48085
X59585Y49075
X60825Y49285
X61925Y49869
X63325Y49535
X63745Y50165
X63575Y48385
X62535Y46525
X61535Y46525
X60135Y46675
X60995Y48125
X60605Y51455
X62655Y51605
X66255Y49195
X66525Y48085
X68785Y49075
X70025Y49285
X70195Y48125
X69335Y46675
X70735Y46525
X71735Y46525
X72775Y48385
X72525Y49535
X72945Y50165
X71125Y49869
X71855Y51605
X69805Y51455
X75455Y49195
X75725Y48085
X53455Y51605
X51405Y51455
X50385Y49075
X48125Y48085
X47855Y49195
X45345Y50165
X44925Y49535
X43525Y49869
X42425Y49285
X41185Y49075
X42595Y48125
X41735Y46675
X43135Y46525
X44135Y46525
X45175Y48385
X44255Y51605
X42205Y51455
X38655Y49195
X38925Y48085
X35975Y48385
X35725Y49535
X36145Y50165
X34325Y49869
X33225Y49285
X33395Y48125
X32535Y46675
X33935Y46525
X34935Y46525
X31985Y49075
X29725Y48085
X29455Y49195
X26945Y50165
X26525Y49535
X25125Y49869
X24025Y49285
X22785Y49075
X24195Y48125
X23335Y46675
X24735Y46525
X25735Y46525
X26775Y48385
X25855Y51605
X23805Y51455
X20255Y49195
X20525Y48085
X17575Y48385
X17325Y49535
X17745Y50165
X15925Y49869
X14825Y49285
X14995Y48125
X14135Y46675
X15535Y46525
X16535Y46525
X13585Y49075
X11325Y48085
X11055Y49195
X8545Y50165
X8125Y49535
X8375Y48385
X7335Y46525
X6335Y46525
X4935Y46675
X5795Y48125
X5625Y49285
X6725Y49869
X4385Y49075
X5405Y51455
X7455Y51605
X14605Y51455
X16655Y51605
X33005Y51455
X35055Y51605
X51405Y31055
X53455Y31205
X60605Y31055
X60605Y20855
X62655Y21005
X63745Y19565
X63325Y18935
X63575Y17785
X61925Y19269
X60825Y18685
X60995Y17525
X60135Y16075
X61535Y15925
X62535Y15925
X59585Y18475
X57325Y17485
X57055Y18595
X54545Y19565
X54125Y18935
X54375Y17785
X52725Y19269
X51625Y18685
X50385Y18475
X51795Y17525
X50935Y16075
X52335Y15925
X53335Y15925
X48125Y17485
X47855Y18595
X45345Y19565
X44925Y18935
X43525Y19269
X42425Y18685
X41185Y18475
X42595Y17525
X41735Y16075
X43135Y15925
X44135Y15925
X45175Y17785
X44255Y21005
X42205Y20855
X38655Y18595
X38925Y17485
X35975Y17785
X35725Y18935
X36145Y19565
X35055Y21005
X33005Y20855
X34325Y19269
X33225Y18685
X33395Y17525
X32535Y16075
X33935Y15925
X34935Y15925
X31985Y18475
X29725Y17485
X29455Y18595
X26945Y19565
X26525Y18935
X25125Y19269
X24025Y18685
X22785Y18475
X24195Y17525
X23335Y16075
X24735Y15925
X25735Y15925
X26775Y17785
X25855Y21005
X23805Y20855
X20255Y18595
X20525Y17485
X17575Y17785
X17325Y18935
X17745Y19565
X16655Y21005
X15925Y19269
X14825Y18685
X14995Y17525
X14135Y16075
X15535Y15925
X16535Y15925
X13585Y18475
X11325Y17485
X11055Y18595
X8545Y19565
X8125Y18935
X8375Y17785
X6725Y19269
X5625Y18685
X4385Y18475
X5795Y17525
X4935Y16075
X6335Y15925
X7335Y15925
X7455Y21005
X5405Y20855
X14605Y20855
X14605Y10655
X16655Y10805
X17745Y9365
X17325Y8735
X17575Y7585
X15925Y9069
X14825Y8485
X14995Y7325
X13585Y8275
X11325Y7285
X11055Y8395
X8545Y9365
X8125Y8735
X8375Y7585
X6725Y9069
X5625Y8485
X4385Y8275
X5795Y7325
X4935Y5875
X6335Y5725
X7335Y5725
X7455Y10805
X5405Y10655
X14135Y5875
X15535Y5725
X16535Y5725
X20525Y7285
X20255Y8395
X22785Y8275
X24025Y8485
X24195Y7325
X25125Y9069
X26525Y8735
X26945Y9365
X25855Y10805
X23805Y10655
X26775Y7585
X25735Y5725
X24735Y5725
X23335Y5875
X29725Y7285
X29455Y8395
X31985Y8275
X33225Y8485
X34325Y9069
X35725Y8735
X36145Y9365
X35055Y10805
X33005Y10655
X33395Y7325
X32535Y5875
X33935Y5725
X34935Y5725
X35975Y7585
X38655Y8395
X38925Y7285
X41185Y8275
X42425Y8485
X42595Y7325
X43525Y9069
X44925Y8735
X45345Y9365
X44255Y10805
X42205Y10655
X45175Y7585
X44135Y5725
X43135Y5725
X41735Y5875
X48125Y7285
X47855Y8395
X50385Y8275
X51625Y8485
X52725Y9069
X54125Y8735
X54545Y9365
X53455Y10805
X51405Y10655
X51795Y7325
X50935Y5875
X52335Y5725
X53335Y5725
X54375Y7585
X57055Y8395
X57325Y7285
X59585Y8275
X60825Y8485
X61925Y9069
X63325Y8735
X63745Y9365
X62655Y10805
X60605Y10655
X60995Y7325
X60135Y5875
X61535Y5725
X62535Y5725
X63575Y7585
X66255Y8395
X66525Y7285
X68785Y8275
X70025Y8485
X70195Y7325
X71125Y9069
X72525Y8735
X72945Y9365
X71855Y10805
X69805Y10655
X72775Y7585
X71735Y5725
X70735Y5725
X69335Y5875
X75725Y7285
X75455Y8395
X71735Y15925
X70735Y15925
X69335Y16075
X70195Y17525
X70025Y18685
X68785Y18475
X66525Y17485
X66255Y18595
X69805Y20855
X71855Y21005
X72945Y19565
X72525Y18935
X71125Y19269
X72775Y17785
X75455Y18595
X75725Y17485
X53455Y21005
X51405Y20855
X14605Y31055
T03
X3375Y3375
X4375Y3375
X5375Y3375
X6375Y3375
X7375Y3375
X8375Y3375
X9375Y3375
X10375Y3375
X11375Y3375
X12575Y3375
X13575Y3375
X14575Y3375
X15575Y3375
X16575Y3375
X17575Y3375
X18575Y3375
X19575Y3375
X20575Y3375
X21775Y3375
X22775Y3375
X23775Y3375
X24775Y3375
X25775Y3375
X26775Y3375
X27775Y3375
X28775Y3375
X29775Y3375
X30975Y3375
X31975Y3375
X32975Y3375
X33975Y3375
X34975Y3375
X35975Y3375
X36975Y3375
X37975Y3375
X38975Y3375
X40175Y3375
X41175Y3375
X42175Y3375
X43175Y3375
X44175Y3375
X45175Y3375
X46175Y3375
X47175Y3375
X48175Y3375
X49375Y3375
X50375Y3375
X51375Y3375
X52375Y3375
X53375Y3375
X54375Y3375
X55375Y3375
X56375Y3375
X57375Y3375
X58575Y3375
X59575Y3375
X60575Y3375
X61575Y3375
X62575Y3375
X63575Y3375
X64575Y3375
X65575Y3375
X66575Y3375
X67775Y3375
X68775Y3375
X69775Y3375
X70775Y3375
X71775Y3375
X72775Y3375
X73775Y3375
X74775Y3375
X75775Y3375
X75775Y13575
X74775Y13575
X73775Y13575
X72775Y13575
X71775Y13575
X70775Y13575
X69775Y13575
X68775Y13575
X67775Y13575
X66575Y13575
X65575Y13575
X64575Y13575
X63575Y13575
X62575Y13575
X61575Y13575
X60575Y13575
X59575Y13575
X58575Y13575
X57375Y13575
X56375Y13575
X55375Y13575
X54375Y13575
X53375Y13575
X52375Y13575
X51375Y13575
X50375Y13575
X49375Y13575
X48175Y13575
X47175Y13575
X46175Y13575
X45175Y13575
X44175Y13575
X43175Y13575
X42175Y13575
X41175Y13575
X40175Y13575
X38975Y13575
X37975Y13575
X36975Y13575
X35975Y13575
X34975Y13575
X33975Y13575
X32975Y13575
X31975Y13575
X30975Y13575
X29775Y13575
X28775Y13575
X27775Y13575
X26775Y13575
X25775Y13575
X24775Y13575
X23775Y13575
X22775Y13575
X21775Y13575
X20575Y13575
X19575Y13575
X18575Y13575
X17575Y13575
X16575Y13575
X15575Y13575
X14575Y13575
X13575Y13575
X12575Y13575
X11375Y13575
X10375Y13575
X9375Y13575
X8375Y13575
X7375Y13575
X6375Y13575
X5375Y13575
X4375Y13575
X3375Y13575
X3375Y23775
X4375Y23775
X5375Y23775
X6375Y23775
X7375Y23775
X8375Y23775
X9375Y23775
X10375Y23775
X11375Y23775
X12575Y23775
X13575Y23775
X14575Y23775
X15575Y23775
X16575Y23775
X17575Y23775
X18575Y23775
X19575Y23775
X20575Y23775
X21775Y23775
X22775Y23775
X23775Y23775
X24775Y23775
X25775Y23775
X26775Y23775
X27775Y23775
X28775Y23775
X29775Y23775
X30975Y23775
X31975Y23775
X32975Y23775
X33975Y23775
X34975Y23775
X35975Y23775
X36975Y23775
X37975Y23775
X38975Y23775
X40175Y23775
X41175Y23775
X42175Y23775
X43175Y23775
X44175Y23775
X45175Y23775
X46175Y23775
X47175Y23775
X48175Y23775
X49375Y23775
X50375Y23775
X51375Y23775
X52375Y23775
X53375Y23775
X54375Y23775
X55375Y23775
X56375Y23775
X57375Y23775
X58575Y23775
X59575Y23775
X60575Y23775
X61575Y23775
X62575Y23775
X63575Y23775
X64575Y23775
X65575Y23775
X66575Y23775
X67775Y23775
X68775Y23775
X69775Y23775
X70775Y23775
X71775Y23775
X72775Y23775
X73775Y23775
X74775Y23775
X75775Y23775
X75775Y33975
X74775Y33975
X73775Y33975
X72775Y33975
X71775Y33975
X70775Y33975
X69775Y33975
X68775Y33975
X67775Y33975
X66575Y33975
X65575Y33975
X64575Y33975
X63575Y33975
X62575Y33975
X61575Y33975
X60575Y33975
X59575Y33975
X58575Y33975
X57375Y33975
X56375Y33975
X55375Y33975
X54375Y33975
X53375Y33975
X52375Y33975
X51375Y33975
X50375Y33975
X49375Y33975
X48175Y33975
X47175Y33975
X46175Y33975
X45175Y33975
X44175Y33975
X43175Y33975
X42175Y33975
X41175Y33975
X40175Y33975
X38975Y33975
X37975Y33975
X36975Y33975
X35975Y33975
X34975Y33975
X33975Y33975
X32975Y33975
X31975Y33975
X30975Y33975
X29775Y33975
X28775Y33975
X27775Y33975
X26775Y33975
X25775Y33975
X24775Y33975
X23775Y33975
X22775Y33975
X21775Y33975
X20575Y33975
X19575Y33975
X18575Y33975
X17575Y33975
X16575Y33975
X15575Y33975
X14575Y33975
X13575Y33975
X12575Y33975
X11375Y33975
X10375Y33975
X9375Y33975
X8375Y33975
X7375Y33975
X6375Y33975
X5375Y33975
X4375Y33975
X3375Y33975
X3375Y44175
X4375Y44175
X5375Y44175
X6375Y44175
X7375Y44175
X8375Y44175
X9375Y44175
X10375Y44175
X11375Y44175
X12575Y44175
X13575Y44175
X14575Y44175
X15575Y44175
X16575Y44175
X17575Y44175
X18575Y44175
X19575Y44175
X20575Y44175
X21775Y44175
X22775Y44175
X23775Y44175
X24775Y44175
X25775Y44175
X26775Y44175
X27775Y44175
X28775Y44175
X29775Y44175
X30975Y44175
X31975Y44175
X32975Y44175
X33975Y44175
X34975Y44175
X35975Y44175
X36975Y44175
X37975Y44175
X38975Y44175
X40175Y44175
X41175Y44175
X42175Y44175
X43175Y44175
X44175Y44175
X45175Y44175
X46175Y44175
X47175Y44175
X48175Y44175
X49375Y44175
X50375Y44175
X51375Y44175
X52375Y44175
X53375Y44175
X54375Y44175
X55375Y44175
X56375Y44175
X57375Y44175
X58575Y44175
X59575Y44175
X60575Y44175
X61575Y44175
X62575Y44175
X63575Y44175
X64575Y44175
X65575Y44175
X66575Y44175
X67775Y44175
X68775Y44175
X69775Y44175
X70775Y44175
X71775Y44175
X72775Y44175
X73775Y44175
X74775Y44175
X75775Y44175
T04
X75275Y42475
X68275Y42475
X66075Y42475
X59075Y42475
X56875Y42475
X49875Y42475
X47675Y42475
X40675Y42475
X38475Y42475
X31475Y42475
X29275Y42475
X22275Y42475
X20075Y42475
X13075Y42475
X10875Y42475
X3875Y42475
X3875Y32275
X10875Y32275
X13075Y32275
X20075Y32275
X22275Y32275
X29275Y32275
X31475Y32275
X38475Y32275
X40675Y32275
X47675Y32275
X49875Y32275
X56875Y32275
X59075Y32275
X66075Y32275
X68275Y32275
X75275Y32275
X75275Y22075
X68275Y22075
X66075Y22075
X59075Y22075
X56875Y22075
X49875Y22075
X47675Y22075
X40675Y22075
X38475Y22075
X31475Y22075
X29275Y22075
X22275Y22075
X20075Y22075
X13075Y22075
X10875Y22075
X3875Y22075
X3875Y11875
X10875Y11875
X13075Y11875
X20075Y11875
X22275Y11875
X29275Y11875
X31475Y11875
X38475Y11875
X40675Y11875
X47675Y11875
X49875Y11875
X56875Y11875
X59075Y11875
X66075Y11875
X68275Y11875
X75275Y11875
X75275Y52675
X68275Y52675
X66075Y52675
X59075Y52675
X56875Y52675
X49875Y52675
X47675Y52675
X40675Y52675
X38475Y52675
X31475Y52675
X29275Y52675
X22275Y52675
X20075Y52675
X13075Y52675
X10875Y52675
X3875Y52675
M30
