G75*
%MOIN*%
%OFA0B0*%
%FSLAX25Y25*%
%IPPOS*%
%LPD*%
%AMOC8*
5,1,8,0,0,1.08239X$1,22.5*
%
%ADD10C,0.08200*%
%ADD11R,0.05800X0.03300*%
%ADD12C,0.00500*%
%ADD13C,0.13800*%
%ADD14C,0.03300*%
D10*
X0033750Y0033750D03*
X0043750Y0033750D03*
X0053750Y0033750D03*
X0063750Y0033750D03*
X0073750Y0033750D03*
X0083750Y0033750D03*
X0093750Y0033750D03*
X0103750Y0033750D03*
X0113750Y0033750D03*
X0125750Y0033750D03*
X0135750Y0033750D03*
X0145750Y0033750D03*
X0155750Y0033750D03*
X0165750Y0033750D03*
X0175750Y0033750D03*
X0185750Y0033750D03*
X0195750Y0033750D03*
X0205750Y0033750D03*
X0217750Y0033750D03*
X0227750Y0033750D03*
X0237750Y0033750D03*
X0247750Y0033750D03*
X0257750Y0033750D03*
X0267750Y0033750D03*
X0277750Y0033750D03*
X0287750Y0033750D03*
X0297750Y0033750D03*
X0309750Y0033750D03*
X0319750Y0033750D03*
X0329750Y0033750D03*
X0339750Y0033750D03*
X0349750Y0033750D03*
X0359750Y0033750D03*
X0369750Y0033750D03*
X0379750Y0033750D03*
X0389750Y0033750D03*
X0401750Y0033750D03*
X0411750Y0033750D03*
X0421750Y0033750D03*
X0431750Y0033750D03*
X0441750Y0033750D03*
X0451750Y0033750D03*
X0461750Y0033750D03*
X0471750Y0033750D03*
X0481750Y0033750D03*
X0493750Y0033750D03*
X0503750Y0033750D03*
X0513750Y0033750D03*
X0523750Y0033750D03*
X0533750Y0033750D03*
X0543750Y0033750D03*
X0553750Y0033750D03*
X0563750Y0033750D03*
X0573750Y0033750D03*
X0585750Y0033750D03*
X0595750Y0033750D03*
X0605750Y0033750D03*
X0615750Y0033750D03*
X0625750Y0033750D03*
X0635750Y0033750D03*
X0645750Y0033750D03*
X0655750Y0033750D03*
X0665750Y0033750D03*
X0677750Y0033750D03*
X0687750Y0033750D03*
X0697750Y0033750D03*
X0707750Y0033750D03*
X0717750Y0033750D03*
X0727750Y0033750D03*
X0737750Y0033750D03*
X0747750Y0033750D03*
X0757750Y0033750D03*
X0757750Y0135750D03*
X0747750Y0135750D03*
X0737750Y0135750D03*
X0727750Y0135750D03*
X0717750Y0135750D03*
X0707750Y0135750D03*
X0697750Y0135750D03*
X0687750Y0135750D03*
X0677750Y0135750D03*
X0665750Y0135750D03*
X0655750Y0135750D03*
X0645750Y0135750D03*
X0635750Y0135750D03*
X0625750Y0135750D03*
X0615750Y0135750D03*
X0605750Y0135750D03*
X0595750Y0135750D03*
X0585750Y0135750D03*
X0573750Y0135750D03*
X0563750Y0135750D03*
X0553750Y0135750D03*
X0543750Y0135750D03*
X0533750Y0135750D03*
X0523750Y0135750D03*
X0513750Y0135750D03*
X0503750Y0135750D03*
X0493750Y0135750D03*
X0481750Y0135750D03*
X0471750Y0135750D03*
X0461750Y0135750D03*
X0451750Y0135750D03*
X0441750Y0135750D03*
X0431750Y0135750D03*
X0421750Y0135750D03*
X0411750Y0135750D03*
X0401750Y0135750D03*
X0389750Y0135750D03*
X0379750Y0135750D03*
X0369750Y0135750D03*
X0359750Y0135750D03*
X0349750Y0135750D03*
X0339750Y0135750D03*
X0329750Y0135750D03*
X0319750Y0135750D03*
X0309750Y0135750D03*
X0297750Y0135750D03*
X0287750Y0135750D03*
X0277750Y0135750D03*
X0267750Y0135750D03*
X0257750Y0135750D03*
X0247750Y0135750D03*
X0237750Y0135750D03*
X0227750Y0135750D03*
X0217750Y0135750D03*
X0205750Y0135750D03*
X0195750Y0135750D03*
X0185750Y0135750D03*
X0175750Y0135750D03*
X0165750Y0135750D03*
X0155750Y0135750D03*
X0145750Y0135750D03*
X0135750Y0135750D03*
X0125750Y0135750D03*
X0113750Y0135750D03*
X0103750Y0135750D03*
X0093750Y0135750D03*
X0083750Y0135750D03*
X0073750Y0135750D03*
X0063750Y0135750D03*
X0053750Y0135750D03*
X0043750Y0135750D03*
X0033750Y0135750D03*
X0033750Y0237750D03*
X0043750Y0237750D03*
X0053750Y0237750D03*
X0063750Y0237750D03*
X0073750Y0237750D03*
X0083750Y0237750D03*
X0093750Y0237750D03*
X0103750Y0237750D03*
X0113750Y0237750D03*
X0125750Y0237750D03*
X0135750Y0237750D03*
X0145750Y0237750D03*
X0155750Y0237750D03*
X0165750Y0237750D03*
X0175750Y0237750D03*
X0185750Y0237750D03*
X0195750Y0237750D03*
X0205750Y0237750D03*
X0217750Y0237750D03*
X0227750Y0237750D03*
X0237750Y0237750D03*
X0247750Y0237750D03*
X0257750Y0237750D03*
X0267750Y0237750D03*
X0277750Y0237750D03*
X0287750Y0237750D03*
X0297750Y0237750D03*
X0309750Y0237750D03*
X0319750Y0237750D03*
X0329750Y0237750D03*
X0339750Y0237750D03*
X0349750Y0237750D03*
X0359750Y0237750D03*
X0369750Y0237750D03*
X0379750Y0237750D03*
X0389750Y0237750D03*
X0401750Y0237750D03*
X0411750Y0237750D03*
X0421750Y0237750D03*
X0431750Y0237750D03*
X0441750Y0237750D03*
X0451750Y0237750D03*
X0461750Y0237750D03*
X0471750Y0237750D03*
X0481750Y0237750D03*
X0493750Y0237750D03*
X0503750Y0237750D03*
X0513750Y0237750D03*
X0523750Y0237750D03*
X0533750Y0237750D03*
X0543750Y0237750D03*
X0553750Y0237750D03*
X0563750Y0237750D03*
X0573750Y0237750D03*
X0585750Y0237750D03*
X0595750Y0237750D03*
X0605750Y0237750D03*
X0615750Y0237750D03*
X0625750Y0237750D03*
X0635750Y0237750D03*
X0645750Y0237750D03*
X0655750Y0237750D03*
X0665750Y0237750D03*
X0677750Y0237750D03*
X0687750Y0237750D03*
X0697750Y0237750D03*
X0707750Y0237750D03*
X0717750Y0237750D03*
X0727750Y0237750D03*
X0737750Y0237750D03*
X0747750Y0237750D03*
X0757750Y0237750D03*
X0757750Y0339750D03*
X0747750Y0339750D03*
X0737750Y0339750D03*
X0727750Y0339750D03*
X0717750Y0339750D03*
X0707750Y0339750D03*
X0697750Y0339750D03*
X0687750Y0339750D03*
X0677750Y0339750D03*
X0665750Y0339750D03*
X0655750Y0339750D03*
X0645750Y0339750D03*
X0635750Y0339750D03*
X0625750Y0339750D03*
X0615750Y0339750D03*
X0605750Y0339750D03*
X0595750Y0339750D03*
X0585750Y0339750D03*
X0573750Y0339750D03*
X0563750Y0339750D03*
X0553750Y0339750D03*
X0543750Y0339750D03*
X0533750Y0339750D03*
X0523750Y0339750D03*
X0513750Y0339750D03*
X0503750Y0339750D03*
X0493750Y0339750D03*
X0481750Y0339750D03*
X0471750Y0339750D03*
X0461750Y0339750D03*
X0451750Y0339750D03*
X0441750Y0339750D03*
X0431750Y0339750D03*
X0421750Y0339750D03*
X0411750Y0339750D03*
X0401750Y0339750D03*
X0389750Y0339750D03*
X0379750Y0339750D03*
X0369750Y0339750D03*
X0359750Y0339750D03*
X0349750Y0339750D03*
X0339750Y0339750D03*
X0329750Y0339750D03*
X0319750Y0339750D03*
X0309750Y0339750D03*
X0297750Y0339750D03*
X0287750Y0339750D03*
X0277750Y0339750D03*
X0267750Y0339750D03*
X0257750Y0339750D03*
X0247750Y0339750D03*
X0237750Y0339750D03*
X0227750Y0339750D03*
X0217750Y0339750D03*
X0205750Y0339750D03*
X0195750Y0339750D03*
X0185750Y0339750D03*
X0175750Y0339750D03*
X0165750Y0339750D03*
X0155750Y0339750D03*
X0145750Y0339750D03*
X0135750Y0339750D03*
X0125750Y0339750D03*
X0113750Y0339750D03*
X0103750Y0339750D03*
X0093750Y0339750D03*
X0083750Y0339750D03*
X0073750Y0339750D03*
X0063750Y0339750D03*
X0053750Y0339750D03*
X0043750Y0339750D03*
X0033750Y0339750D03*
X0033750Y0441750D03*
X0043750Y0441750D03*
X0053750Y0441750D03*
X0063750Y0441750D03*
X0073750Y0441750D03*
X0083750Y0441750D03*
X0093750Y0441750D03*
X0103750Y0441750D03*
X0113750Y0441750D03*
X0125750Y0441750D03*
X0135750Y0441750D03*
X0145750Y0441750D03*
X0155750Y0441750D03*
X0165750Y0441750D03*
X0175750Y0441750D03*
X0185750Y0441750D03*
X0195750Y0441750D03*
X0205750Y0441750D03*
X0217750Y0441750D03*
X0227750Y0441750D03*
X0237750Y0441750D03*
X0247750Y0441750D03*
X0257750Y0441750D03*
X0267750Y0441750D03*
X0277750Y0441750D03*
X0287750Y0441750D03*
X0297750Y0441750D03*
X0309750Y0441750D03*
X0319750Y0441750D03*
X0329750Y0441750D03*
X0339750Y0441750D03*
X0349750Y0441750D03*
X0359750Y0441750D03*
X0369750Y0441750D03*
X0379750Y0441750D03*
X0389750Y0441750D03*
X0401750Y0441750D03*
X0411750Y0441750D03*
X0421750Y0441750D03*
X0431750Y0441750D03*
X0441750Y0441750D03*
X0451750Y0441750D03*
X0461750Y0441750D03*
X0471750Y0441750D03*
X0481750Y0441750D03*
X0493750Y0441750D03*
X0503750Y0441750D03*
X0513750Y0441750D03*
X0523750Y0441750D03*
X0533750Y0441750D03*
X0543750Y0441750D03*
X0553750Y0441750D03*
X0563750Y0441750D03*
X0573750Y0441750D03*
X0585750Y0441750D03*
X0595750Y0441750D03*
X0605750Y0441750D03*
X0615750Y0441750D03*
X0625750Y0441750D03*
X0635750Y0441750D03*
X0645750Y0441750D03*
X0655750Y0441750D03*
X0665750Y0441750D03*
X0677750Y0441750D03*
X0687750Y0441750D03*
X0697750Y0441750D03*
X0707750Y0441750D03*
X0717750Y0441750D03*
X0727750Y0441750D03*
X0737750Y0441750D03*
X0747750Y0441750D03*
X0757750Y0441750D03*
D11*
X0747350Y0472650D03*
X0747350Y0475850D03*
X0737350Y0475850D03*
X0737350Y0472650D03*
X0735750Y0485350D03*
X0735750Y0489350D03*
X0735750Y0493350D03*
X0745750Y0493350D03*
X0745750Y0489350D03*
X0745750Y0485350D03*
X0757250Y0485250D03*
X0757250Y0488450D03*
X0715750Y0489350D03*
X0715750Y0485350D03*
X0715750Y0493350D03*
X0705750Y0493350D03*
X0705750Y0489350D03*
X0705750Y0485350D03*
X0695850Y0485150D03*
X0695850Y0488350D03*
X0707350Y0475850D03*
X0707350Y0472650D03*
X0717350Y0472650D03*
X0717350Y0475850D03*
X0665250Y0485250D03*
X0665250Y0488450D03*
X0653750Y0489350D03*
X0653750Y0485350D03*
X0653750Y0493350D03*
X0643750Y0493350D03*
X0643750Y0489350D03*
X0643750Y0485350D03*
X0645350Y0475850D03*
X0645350Y0472650D03*
X0655350Y0472650D03*
X0655350Y0475850D03*
X0625350Y0475850D03*
X0625350Y0472650D03*
X0615350Y0472650D03*
X0615350Y0475850D03*
X0613750Y0485350D03*
X0613750Y0489350D03*
X0613750Y0493350D03*
X0603850Y0488350D03*
X0603850Y0485150D03*
X0623750Y0485350D03*
X0623750Y0489350D03*
X0623750Y0493350D03*
X0573250Y0488450D03*
X0573250Y0485250D03*
X0561750Y0485350D03*
X0561750Y0489350D03*
X0561750Y0493350D03*
X0551750Y0493350D03*
X0551750Y0489350D03*
X0551750Y0485350D03*
X0553350Y0475850D03*
X0553350Y0472650D03*
X0563350Y0472650D03*
X0563350Y0475850D03*
X0533350Y0475850D03*
X0533350Y0472650D03*
X0523350Y0472650D03*
X0523350Y0475850D03*
X0521750Y0485350D03*
X0521750Y0489350D03*
X0521750Y0493350D03*
X0531750Y0493350D03*
X0531750Y0489350D03*
X0531750Y0485350D03*
X0511850Y0485150D03*
X0511850Y0488350D03*
X0481250Y0488450D03*
X0481250Y0485250D03*
X0469750Y0485350D03*
X0469750Y0489350D03*
X0469750Y0493350D03*
X0459750Y0493350D03*
X0459750Y0489350D03*
X0459750Y0485350D03*
X0461350Y0475850D03*
X0461350Y0472650D03*
X0471350Y0472650D03*
X0471350Y0475850D03*
X0441350Y0475850D03*
X0441350Y0472650D03*
X0431350Y0472650D03*
X0431350Y0475850D03*
X0429750Y0485350D03*
X0429750Y0489350D03*
X0429750Y0493350D03*
X0439750Y0493350D03*
X0439750Y0489350D03*
X0439750Y0485350D03*
X0419850Y0485150D03*
X0419850Y0488350D03*
X0389250Y0488450D03*
X0389250Y0485250D03*
X0377750Y0485350D03*
X0377750Y0489350D03*
X0377750Y0493350D03*
X0367750Y0493350D03*
X0367750Y0489350D03*
X0367750Y0485350D03*
X0369350Y0475850D03*
X0369350Y0472650D03*
X0379350Y0472650D03*
X0379350Y0475850D03*
X0349350Y0475850D03*
X0349350Y0472650D03*
X0339350Y0472650D03*
X0339350Y0475850D03*
X0337750Y0485350D03*
X0337750Y0489350D03*
X0337750Y0493350D03*
X0347750Y0493350D03*
X0347750Y0489350D03*
X0347750Y0485350D03*
X0327850Y0485150D03*
X0327850Y0488350D03*
X0297250Y0488450D03*
X0297250Y0485250D03*
X0285750Y0485350D03*
X0285750Y0489350D03*
X0285750Y0493350D03*
X0275750Y0493350D03*
X0275750Y0489350D03*
X0275750Y0485350D03*
X0277350Y0475850D03*
X0277350Y0472650D03*
X0287350Y0472650D03*
X0287350Y0475850D03*
X0257350Y0475850D03*
X0257350Y0472650D03*
X0247350Y0472650D03*
X0247350Y0475850D03*
X0245750Y0485350D03*
X0245750Y0489350D03*
X0245750Y0493350D03*
X0255750Y0493350D03*
X0255750Y0489350D03*
X0255750Y0485350D03*
X0235850Y0485150D03*
X0235850Y0488350D03*
X0205250Y0488450D03*
X0205250Y0485250D03*
X0193750Y0485350D03*
X0193750Y0489350D03*
X0193750Y0493350D03*
X0183750Y0493350D03*
X0183750Y0489350D03*
X0183750Y0485350D03*
X0185350Y0475850D03*
X0185350Y0472650D03*
X0195350Y0472650D03*
X0195350Y0475850D03*
X0165350Y0475850D03*
X0165350Y0472650D03*
X0155350Y0472650D03*
X0155350Y0475850D03*
X0153750Y0485350D03*
X0153750Y0489350D03*
X0153750Y0493350D03*
X0163750Y0493350D03*
X0163750Y0489350D03*
X0163750Y0485350D03*
X0143850Y0485150D03*
X0143850Y0488350D03*
X0113250Y0488450D03*
X0113250Y0485250D03*
X0101750Y0485350D03*
X0101750Y0489350D03*
X0101750Y0493350D03*
X0091750Y0493350D03*
X0091750Y0489350D03*
X0091750Y0485350D03*
X0093350Y0475850D03*
X0093350Y0472650D03*
X0103350Y0472650D03*
X0103350Y0475850D03*
X0073350Y0475850D03*
X0073350Y0472650D03*
X0063350Y0472650D03*
X0063350Y0475850D03*
X0061750Y0485350D03*
X0061750Y0489350D03*
X0061750Y0493350D03*
X0071750Y0493350D03*
X0071750Y0489350D03*
X0071750Y0485350D03*
X0051850Y0485150D03*
X0051850Y0488350D03*
X0061750Y0391350D03*
X0061750Y0387350D03*
X0061750Y0383350D03*
X0071750Y0383350D03*
X0071750Y0387350D03*
X0071750Y0391350D03*
X0091750Y0391350D03*
X0091750Y0387350D03*
X0091750Y0383350D03*
X0101750Y0383350D03*
X0101750Y0387350D03*
X0101750Y0391350D03*
X0113250Y0386450D03*
X0113250Y0383250D03*
X0103350Y0373850D03*
X0103350Y0370650D03*
X0093350Y0370650D03*
X0093350Y0373850D03*
X0073350Y0373850D03*
X0073350Y0370650D03*
X0063350Y0370650D03*
X0063350Y0373850D03*
X0051850Y0383150D03*
X0051850Y0386350D03*
X0143850Y0386350D03*
X0143850Y0383150D03*
X0153750Y0383350D03*
X0153750Y0387350D03*
X0153750Y0391350D03*
X0163750Y0391350D03*
X0163750Y0387350D03*
X0163750Y0383350D03*
X0165350Y0373850D03*
X0165350Y0370650D03*
X0155350Y0370650D03*
X0155350Y0373850D03*
X0183750Y0383350D03*
X0183750Y0387350D03*
X0183750Y0391350D03*
X0193750Y0391350D03*
X0193750Y0387350D03*
X0193750Y0383350D03*
X0205250Y0383250D03*
X0205250Y0386450D03*
X0195350Y0373850D03*
X0195350Y0370650D03*
X0185350Y0370650D03*
X0185350Y0373850D03*
X0235850Y0383150D03*
X0235850Y0386350D03*
X0245750Y0387350D03*
X0245750Y0383350D03*
X0245750Y0391350D03*
X0255750Y0391350D03*
X0255750Y0387350D03*
X0255750Y0383350D03*
X0257350Y0373850D03*
X0257350Y0370650D03*
X0247350Y0370650D03*
X0247350Y0373850D03*
X0275750Y0383350D03*
X0275750Y0387350D03*
X0275750Y0391350D03*
X0285750Y0391350D03*
X0285750Y0387350D03*
X0285750Y0383350D03*
X0297250Y0383250D03*
X0297250Y0386450D03*
X0287350Y0373850D03*
X0287350Y0370650D03*
X0277350Y0370650D03*
X0277350Y0373850D03*
X0327850Y0383150D03*
X0327850Y0386350D03*
X0337750Y0387350D03*
X0337750Y0383350D03*
X0337750Y0391350D03*
X0347750Y0391350D03*
X0347750Y0387350D03*
X0347750Y0383350D03*
X0349350Y0373850D03*
X0349350Y0370650D03*
X0339350Y0370650D03*
X0339350Y0373850D03*
X0367750Y0383350D03*
X0367750Y0387350D03*
X0367750Y0391350D03*
X0377750Y0391350D03*
X0377750Y0387350D03*
X0377750Y0383350D03*
X0389250Y0383250D03*
X0389250Y0386450D03*
X0379350Y0373850D03*
X0379350Y0370650D03*
X0369350Y0370650D03*
X0369350Y0373850D03*
X0419850Y0383150D03*
X0419850Y0386350D03*
X0429750Y0387350D03*
X0429750Y0383350D03*
X0429750Y0391350D03*
X0439750Y0391350D03*
X0439750Y0387350D03*
X0439750Y0383350D03*
X0441350Y0373850D03*
X0441350Y0370650D03*
X0431350Y0370650D03*
X0431350Y0373850D03*
X0459750Y0383350D03*
X0459750Y0387350D03*
X0459750Y0391350D03*
X0469750Y0391350D03*
X0469750Y0387350D03*
X0469750Y0383350D03*
X0481250Y0383250D03*
X0481250Y0386450D03*
X0471350Y0373850D03*
X0471350Y0370650D03*
X0461350Y0370650D03*
X0461350Y0373850D03*
X0511850Y0383150D03*
X0511850Y0386350D03*
X0521750Y0387350D03*
X0521750Y0383350D03*
X0521750Y0391350D03*
X0531750Y0391350D03*
X0531750Y0387350D03*
X0531750Y0383350D03*
X0533350Y0373850D03*
X0533350Y0370650D03*
X0523350Y0370650D03*
X0523350Y0373850D03*
X0551750Y0383350D03*
X0551750Y0387350D03*
X0551750Y0391350D03*
X0561750Y0391350D03*
X0561750Y0387350D03*
X0561750Y0383350D03*
X0563350Y0373850D03*
X0563350Y0370650D03*
X0553350Y0370650D03*
X0553350Y0373850D03*
X0573250Y0383250D03*
X0573250Y0386450D03*
X0603850Y0386350D03*
X0603850Y0383150D03*
X0613750Y0383350D03*
X0613750Y0387350D03*
X0613750Y0391350D03*
X0623750Y0391350D03*
X0623750Y0387350D03*
X0623750Y0383350D03*
X0625350Y0373850D03*
X0625350Y0370650D03*
X0615350Y0370650D03*
X0615350Y0373850D03*
X0643750Y0383350D03*
X0643750Y0387350D03*
X0643750Y0391350D03*
X0653750Y0391350D03*
X0653750Y0387350D03*
X0653750Y0383350D03*
X0665250Y0383250D03*
X0665250Y0386450D03*
X0655350Y0373850D03*
X0655350Y0370650D03*
X0645350Y0370650D03*
X0645350Y0373850D03*
X0695850Y0383150D03*
X0695850Y0386350D03*
X0705750Y0387350D03*
X0705750Y0383350D03*
X0705750Y0391350D03*
X0715750Y0391350D03*
X0715750Y0387350D03*
X0715750Y0383350D03*
X0717350Y0373850D03*
X0717350Y0370650D03*
X0707350Y0370650D03*
X0707350Y0373850D03*
X0735750Y0383350D03*
X0735750Y0387350D03*
X0735750Y0391350D03*
X0745750Y0391350D03*
X0745750Y0387350D03*
X0745750Y0383350D03*
X0757250Y0383250D03*
X0757250Y0386450D03*
X0747350Y0373850D03*
X0747350Y0370650D03*
X0737350Y0370650D03*
X0737350Y0373850D03*
X0735750Y0289350D03*
X0735750Y0285350D03*
X0735750Y0281350D03*
X0737350Y0271850D03*
X0737350Y0268650D03*
X0747350Y0268650D03*
X0747350Y0271850D03*
X0745750Y0281350D03*
X0745750Y0285350D03*
X0745750Y0289350D03*
X0757250Y0284450D03*
X0757250Y0281250D03*
X0717350Y0271850D03*
X0717350Y0268650D03*
X0707350Y0268650D03*
X0707350Y0271850D03*
X0705750Y0281350D03*
X0705750Y0285350D03*
X0705750Y0289350D03*
X0715750Y0289350D03*
X0715750Y0285350D03*
X0715750Y0281350D03*
X0695850Y0281150D03*
X0695850Y0284350D03*
X0665250Y0284450D03*
X0665250Y0281250D03*
X0653750Y0281350D03*
X0653750Y0285350D03*
X0653750Y0289350D03*
X0643750Y0289350D03*
X0643750Y0285350D03*
X0643750Y0281350D03*
X0645350Y0271850D03*
X0645350Y0268650D03*
X0655350Y0268650D03*
X0655350Y0271850D03*
X0625350Y0271850D03*
X0625350Y0268650D03*
X0615350Y0268650D03*
X0615350Y0271850D03*
X0613750Y0281350D03*
X0613750Y0285350D03*
X0613750Y0289350D03*
X0603850Y0284350D03*
X0603850Y0281150D03*
X0623750Y0281350D03*
X0623750Y0285350D03*
X0623750Y0289350D03*
X0573250Y0284450D03*
X0573250Y0281250D03*
X0561750Y0281350D03*
X0561750Y0285350D03*
X0561750Y0289350D03*
X0551750Y0289350D03*
X0551750Y0285350D03*
X0551750Y0281350D03*
X0553350Y0271850D03*
X0553350Y0268650D03*
X0563350Y0268650D03*
X0563350Y0271850D03*
X0533350Y0271850D03*
X0533350Y0268650D03*
X0523350Y0268650D03*
X0523350Y0271850D03*
X0521750Y0281350D03*
X0521750Y0285350D03*
X0521750Y0289350D03*
X0531750Y0289350D03*
X0531750Y0285350D03*
X0531750Y0281350D03*
X0511850Y0281150D03*
X0511850Y0284350D03*
X0481250Y0284450D03*
X0481250Y0281250D03*
X0469750Y0281350D03*
X0469750Y0285350D03*
X0469750Y0289350D03*
X0459750Y0289350D03*
X0459750Y0285350D03*
X0459750Y0281350D03*
X0461350Y0271850D03*
X0461350Y0268650D03*
X0471350Y0268650D03*
X0471350Y0271850D03*
X0441350Y0271850D03*
X0441350Y0268650D03*
X0431350Y0268650D03*
X0431350Y0271850D03*
X0429750Y0281350D03*
X0429750Y0285350D03*
X0429750Y0289350D03*
X0439750Y0289350D03*
X0439750Y0285350D03*
X0439750Y0281350D03*
X0419850Y0281150D03*
X0419850Y0284350D03*
X0389250Y0284450D03*
X0389250Y0281250D03*
X0377750Y0281350D03*
X0377750Y0285350D03*
X0377750Y0289350D03*
X0367750Y0289350D03*
X0367750Y0285350D03*
X0367750Y0281350D03*
X0369350Y0271850D03*
X0369350Y0268650D03*
X0379350Y0268650D03*
X0379350Y0271850D03*
X0349350Y0271850D03*
X0349350Y0268650D03*
X0339350Y0268650D03*
X0339350Y0271850D03*
X0337750Y0281350D03*
X0337750Y0285350D03*
X0337750Y0289350D03*
X0347750Y0289350D03*
X0347750Y0285350D03*
X0347750Y0281350D03*
X0327850Y0281150D03*
X0327850Y0284350D03*
X0297250Y0284450D03*
X0297250Y0281250D03*
X0285750Y0281350D03*
X0285750Y0285350D03*
X0285750Y0289350D03*
X0275750Y0289350D03*
X0275750Y0285350D03*
X0275750Y0281350D03*
X0277350Y0271850D03*
X0277350Y0268650D03*
X0287350Y0268650D03*
X0287350Y0271850D03*
X0257350Y0271850D03*
X0257350Y0268650D03*
X0247350Y0268650D03*
X0247350Y0271850D03*
X0245750Y0281350D03*
X0245750Y0285350D03*
X0245750Y0289350D03*
X0255750Y0289350D03*
X0255750Y0285350D03*
X0255750Y0281350D03*
X0235850Y0281150D03*
X0235850Y0284350D03*
X0205250Y0284450D03*
X0205250Y0281250D03*
X0193750Y0281350D03*
X0193750Y0285350D03*
X0193750Y0289350D03*
X0183750Y0289350D03*
X0183750Y0285350D03*
X0183750Y0281350D03*
X0185350Y0271850D03*
X0185350Y0268650D03*
X0195350Y0268650D03*
X0195350Y0271850D03*
X0165350Y0271850D03*
X0165350Y0268650D03*
X0155350Y0268650D03*
X0155350Y0271850D03*
X0153750Y0281350D03*
X0153750Y0285350D03*
X0153750Y0289350D03*
X0163750Y0289350D03*
X0163750Y0285350D03*
X0163750Y0281350D03*
X0143850Y0281150D03*
X0143850Y0284350D03*
X0113250Y0284450D03*
X0113250Y0281250D03*
X0101750Y0281350D03*
X0101750Y0285350D03*
X0101750Y0289350D03*
X0091750Y0289350D03*
X0091750Y0285350D03*
X0091750Y0281350D03*
X0093350Y0271850D03*
X0093350Y0268650D03*
X0103350Y0268650D03*
X0103350Y0271850D03*
X0073350Y0271850D03*
X0073350Y0268650D03*
X0063350Y0268650D03*
X0063350Y0271850D03*
X0061750Y0281350D03*
X0061750Y0285350D03*
X0061750Y0289350D03*
X0071750Y0289350D03*
X0071750Y0285350D03*
X0071750Y0281350D03*
X0051850Y0281150D03*
X0051850Y0284350D03*
X0061750Y0187350D03*
X0061750Y0183350D03*
X0061750Y0179350D03*
X0063350Y0169850D03*
X0063350Y0166650D03*
X0073350Y0166650D03*
X0073350Y0169850D03*
X0071750Y0179350D03*
X0071750Y0183350D03*
X0071750Y0187350D03*
X0091750Y0187350D03*
X0091750Y0183350D03*
X0091750Y0179350D03*
X0093350Y0169850D03*
X0093350Y0166650D03*
X0103350Y0166650D03*
X0103350Y0169850D03*
X0101750Y0179350D03*
X0101750Y0183350D03*
X0101750Y0187350D03*
X0113250Y0182450D03*
X0113250Y0179250D03*
X0143850Y0179150D03*
X0143850Y0182350D03*
X0153750Y0183350D03*
X0153750Y0187350D03*
X0153750Y0179350D03*
X0155350Y0169850D03*
X0155350Y0166650D03*
X0165350Y0166650D03*
X0165350Y0169850D03*
X0163750Y0179350D03*
X0163750Y0183350D03*
X0163750Y0187350D03*
X0183750Y0187350D03*
X0183750Y0183350D03*
X0183750Y0179350D03*
X0185350Y0169850D03*
X0185350Y0166650D03*
X0195350Y0166650D03*
X0195350Y0169850D03*
X0193750Y0179350D03*
X0193750Y0183350D03*
X0193750Y0187350D03*
X0205250Y0182450D03*
X0205250Y0179250D03*
X0235850Y0179150D03*
X0235850Y0182350D03*
X0245750Y0183350D03*
X0245750Y0187350D03*
X0245750Y0179350D03*
X0247350Y0169850D03*
X0247350Y0166650D03*
X0257350Y0166650D03*
X0257350Y0169850D03*
X0255750Y0179350D03*
X0255750Y0183350D03*
X0255750Y0187350D03*
X0275750Y0187350D03*
X0275750Y0183350D03*
X0275750Y0179350D03*
X0277350Y0169850D03*
X0277350Y0166650D03*
X0287350Y0166650D03*
X0287350Y0169850D03*
X0285750Y0179350D03*
X0285750Y0183350D03*
X0285750Y0187350D03*
X0297250Y0182450D03*
X0297250Y0179250D03*
X0327850Y0179150D03*
X0327850Y0182350D03*
X0337750Y0183350D03*
X0337750Y0187350D03*
X0337750Y0179350D03*
X0339350Y0169850D03*
X0339350Y0166650D03*
X0349350Y0166650D03*
X0349350Y0169850D03*
X0347750Y0179350D03*
X0347750Y0183350D03*
X0347750Y0187350D03*
X0367750Y0187350D03*
X0367750Y0183350D03*
X0367750Y0179350D03*
X0369350Y0169850D03*
X0369350Y0166650D03*
X0379350Y0166650D03*
X0379350Y0169850D03*
X0377750Y0179350D03*
X0377750Y0183350D03*
X0377750Y0187350D03*
X0389250Y0182450D03*
X0389250Y0179250D03*
X0419850Y0179150D03*
X0419850Y0182350D03*
X0429750Y0183350D03*
X0429750Y0187350D03*
X0429750Y0179350D03*
X0431350Y0169850D03*
X0431350Y0166650D03*
X0441350Y0166650D03*
X0441350Y0169850D03*
X0439750Y0179350D03*
X0439750Y0183350D03*
X0439750Y0187350D03*
X0459750Y0187350D03*
X0459750Y0183350D03*
X0459750Y0179350D03*
X0461350Y0169850D03*
X0461350Y0166650D03*
X0471350Y0166650D03*
X0471350Y0169850D03*
X0469750Y0179350D03*
X0469750Y0183350D03*
X0469750Y0187350D03*
X0481250Y0182450D03*
X0481250Y0179250D03*
X0511850Y0179150D03*
X0511850Y0182350D03*
X0521750Y0183350D03*
X0521750Y0187350D03*
X0521750Y0179350D03*
X0523350Y0169850D03*
X0523350Y0166650D03*
X0533350Y0166650D03*
X0533350Y0169850D03*
X0531750Y0179350D03*
X0531750Y0183350D03*
X0531750Y0187350D03*
X0551750Y0187350D03*
X0551750Y0183350D03*
X0551750Y0179350D03*
X0553350Y0169850D03*
X0553350Y0166650D03*
X0563350Y0166650D03*
X0563350Y0169850D03*
X0561750Y0179350D03*
X0561750Y0183350D03*
X0561750Y0187350D03*
X0573250Y0182450D03*
X0573250Y0179250D03*
X0603850Y0179150D03*
X0603850Y0182350D03*
X0613750Y0183350D03*
X0613750Y0187350D03*
X0613750Y0179350D03*
X0615350Y0169850D03*
X0615350Y0166650D03*
X0625350Y0166650D03*
X0625350Y0169850D03*
X0623750Y0179350D03*
X0623750Y0183350D03*
X0623750Y0187350D03*
X0643750Y0187350D03*
X0643750Y0183350D03*
X0643750Y0179350D03*
X0645350Y0169850D03*
X0645350Y0166650D03*
X0655350Y0166650D03*
X0655350Y0169850D03*
X0653750Y0179350D03*
X0653750Y0183350D03*
X0653750Y0187350D03*
X0665250Y0182450D03*
X0665250Y0179250D03*
X0695850Y0179150D03*
X0695850Y0182350D03*
X0705750Y0183350D03*
X0705750Y0187350D03*
X0705750Y0179350D03*
X0707350Y0169850D03*
X0707350Y0166650D03*
X0717350Y0166650D03*
X0717350Y0169850D03*
X0715750Y0179350D03*
X0715750Y0183350D03*
X0715750Y0187350D03*
X0735750Y0187350D03*
X0735750Y0183350D03*
X0735750Y0179350D03*
X0737350Y0169850D03*
X0737350Y0166650D03*
X0747350Y0166650D03*
X0747350Y0169850D03*
X0745750Y0179350D03*
X0745750Y0183350D03*
X0745750Y0187350D03*
X0757250Y0182450D03*
X0757250Y0179250D03*
X0745750Y0085350D03*
X0745750Y0081350D03*
X0745750Y0077350D03*
X0747350Y0067850D03*
X0747350Y0064650D03*
X0737350Y0064650D03*
X0737350Y0067850D03*
X0735750Y0077350D03*
X0735750Y0081350D03*
X0735750Y0085350D03*
X0715750Y0085350D03*
X0715750Y0081350D03*
X0715750Y0077350D03*
X0717350Y0067850D03*
X0717350Y0064650D03*
X0707350Y0064650D03*
X0707350Y0067850D03*
X0705750Y0077350D03*
X0705750Y0081350D03*
X0705750Y0085350D03*
X0695850Y0080350D03*
X0695850Y0077150D03*
X0665250Y0077250D03*
X0665250Y0080450D03*
X0653750Y0081350D03*
X0653750Y0077350D03*
X0655350Y0067850D03*
X0655350Y0064650D03*
X0645350Y0064650D03*
X0645350Y0067850D03*
X0643750Y0077350D03*
X0643750Y0081350D03*
X0643750Y0085350D03*
X0653750Y0085350D03*
X0623750Y0085350D03*
X0623750Y0081350D03*
X0623750Y0077350D03*
X0625350Y0067850D03*
X0625350Y0064650D03*
X0615350Y0064650D03*
X0615350Y0067850D03*
X0613750Y0077350D03*
X0613750Y0081350D03*
X0613750Y0085350D03*
X0603850Y0080350D03*
X0603850Y0077150D03*
X0573250Y0077250D03*
X0573250Y0080450D03*
X0561750Y0081350D03*
X0561750Y0077350D03*
X0563350Y0067850D03*
X0563350Y0064650D03*
X0553350Y0064650D03*
X0553350Y0067850D03*
X0551750Y0077350D03*
X0551750Y0081350D03*
X0551750Y0085350D03*
X0561750Y0085350D03*
X0531750Y0085350D03*
X0531750Y0081350D03*
X0531750Y0077350D03*
X0533350Y0067850D03*
X0533350Y0064650D03*
X0523350Y0064650D03*
X0523350Y0067850D03*
X0521750Y0077350D03*
X0521750Y0081350D03*
X0521750Y0085350D03*
X0511850Y0080350D03*
X0511850Y0077150D03*
X0481250Y0077250D03*
X0481250Y0080450D03*
X0469750Y0081350D03*
X0469750Y0077350D03*
X0471350Y0067850D03*
X0471350Y0064650D03*
X0461350Y0064650D03*
X0461350Y0067850D03*
X0459750Y0077350D03*
X0459750Y0081350D03*
X0459750Y0085350D03*
X0469750Y0085350D03*
X0439750Y0085350D03*
X0439750Y0081350D03*
X0439750Y0077350D03*
X0441350Y0067850D03*
X0441350Y0064650D03*
X0431350Y0064650D03*
X0431350Y0067850D03*
X0429750Y0077350D03*
X0429750Y0081350D03*
X0429750Y0085350D03*
X0419850Y0080350D03*
X0419850Y0077150D03*
X0389250Y0077250D03*
X0389250Y0080450D03*
X0377750Y0081350D03*
X0377750Y0077350D03*
X0379350Y0067850D03*
X0379350Y0064650D03*
X0369350Y0064650D03*
X0369350Y0067850D03*
X0367750Y0077350D03*
X0367750Y0081350D03*
X0367750Y0085350D03*
X0377750Y0085350D03*
X0347750Y0085350D03*
X0347750Y0081350D03*
X0347750Y0077350D03*
X0349350Y0067850D03*
X0349350Y0064650D03*
X0339350Y0064650D03*
X0339350Y0067850D03*
X0337750Y0077350D03*
X0337750Y0081350D03*
X0337750Y0085350D03*
X0327850Y0080350D03*
X0327850Y0077150D03*
X0297250Y0077250D03*
X0297250Y0080450D03*
X0285750Y0081350D03*
X0285750Y0077350D03*
X0287350Y0067850D03*
X0287350Y0064650D03*
X0277350Y0064650D03*
X0277350Y0067850D03*
X0275750Y0077350D03*
X0275750Y0081350D03*
X0275750Y0085350D03*
X0285750Y0085350D03*
X0255750Y0085350D03*
X0255750Y0081350D03*
X0255750Y0077350D03*
X0257350Y0067850D03*
X0257350Y0064650D03*
X0247350Y0064650D03*
X0247350Y0067850D03*
X0245750Y0077350D03*
X0245750Y0081350D03*
X0245750Y0085350D03*
X0235850Y0080350D03*
X0235850Y0077150D03*
X0205250Y0077250D03*
X0205250Y0080450D03*
X0193750Y0081350D03*
X0193750Y0077350D03*
X0195350Y0067850D03*
X0195350Y0064650D03*
X0185350Y0064650D03*
X0185350Y0067850D03*
X0183750Y0077350D03*
X0183750Y0081350D03*
X0183750Y0085350D03*
X0193750Y0085350D03*
X0165350Y0067850D03*
X0165350Y0064650D03*
X0155350Y0064650D03*
X0155350Y0067850D03*
X0153750Y0077350D03*
X0153750Y0081350D03*
X0153750Y0085350D03*
X0163750Y0085350D03*
X0163750Y0081350D03*
X0163750Y0077350D03*
X0143850Y0077150D03*
X0143850Y0080350D03*
X0113250Y0080450D03*
X0113250Y0077250D03*
X0101750Y0077350D03*
X0101750Y0081350D03*
X0101750Y0085350D03*
X0091750Y0085350D03*
X0091750Y0081350D03*
X0091750Y0077350D03*
X0093350Y0067850D03*
X0093350Y0064650D03*
X0103350Y0064650D03*
X0103350Y0067850D03*
X0073350Y0067850D03*
X0073350Y0064650D03*
X0063350Y0064650D03*
X0063350Y0067850D03*
X0061750Y0077350D03*
X0061750Y0081350D03*
X0061750Y0085350D03*
X0071750Y0085350D03*
X0071750Y0081350D03*
X0071750Y0077350D03*
X0051850Y0077150D03*
X0051850Y0080350D03*
X0051850Y0179150D03*
X0051850Y0182350D03*
X0757250Y0080450D03*
X0757250Y0077250D03*
D12*
X0746250Y0078600D02*
X0746250Y0080100D01*
X0745250Y0080100D01*
X0745250Y0078600D01*
X0746250Y0078600D01*
X0746250Y0078601D02*
X0745250Y0078601D01*
X0745250Y0079100D02*
X0746250Y0079100D01*
X0746250Y0079598D02*
X0745250Y0079598D01*
X0745250Y0080097D02*
X0746250Y0080097D01*
X0736250Y0082600D02*
X0735250Y0082600D01*
X0735250Y0084100D01*
X0736250Y0084100D01*
X0736250Y0082600D01*
X0736250Y0083088D02*
X0735250Y0083088D01*
X0735250Y0083586D02*
X0736250Y0083586D01*
X0736250Y0084085D02*
X0735250Y0084085D01*
X0716250Y0080100D02*
X0716250Y0078600D01*
X0715250Y0078600D01*
X0715250Y0080100D01*
X0716250Y0080100D01*
X0716250Y0080097D02*
X0715250Y0080097D01*
X0715250Y0079598D02*
X0716250Y0079598D01*
X0716250Y0079100D02*
X0715250Y0079100D01*
X0715250Y0078601D02*
X0716250Y0078601D01*
X0706250Y0082600D02*
X0705250Y0082600D01*
X0705250Y0084100D01*
X0706250Y0084100D01*
X0706250Y0082600D01*
X0706250Y0083088D02*
X0705250Y0083088D01*
X0705250Y0083586D02*
X0706250Y0083586D01*
X0706250Y0084085D02*
X0705250Y0084085D01*
X0654250Y0080100D02*
X0654250Y0078600D01*
X0653250Y0078600D01*
X0653250Y0080100D01*
X0654250Y0080100D01*
X0654250Y0080097D02*
X0653250Y0080097D01*
X0653250Y0079598D02*
X0654250Y0079598D01*
X0654250Y0079100D02*
X0653250Y0079100D01*
X0653250Y0078601D02*
X0654250Y0078601D01*
X0644250Y0082600D02*
X0643250Y0082600D01*
X0643250Y0084100D01*
X0644250Y0084100D01*
X0644250Y0082600D01*
X0644250Y0083088D02*
X0643250Y0083088D01*
X0643250Y0083586D02*
X0644250Y0083586D01*
X0644250Y0084085D02*
X0643250Y0084085D01*
X0624250Y0080100D02*
X0624250Y0078600D01*
X0623250Y0078600D01*
X0623250Y0080100D01*
X0624250Y0080100D01*
X0624250Y0080097D02*
X0623250Y0080097D01*
X0623250Y0079598D02*
X0624250Y0079598D01*
X0624250Y0079100D02*
X0623250Y0079100D01*
X0623250Y0078601D02*
X0624250Y0078601D01*
X0614250Y0082600D02*
X0613250Y0082600D01*
X0613250Y0084100D01*
X0614250Y0084100D01*
X0614250Y0082600D01*
X0614250Y0083088D02*
X0613250Y0083088D01*
X0613250Y0083586D02*
X0614250Y0083586D01*
X0614250Y0084085D02*
X0613250Y0084085D01*
X0562250Y0080100D02*
X0562250Y0078600D01*
X0561250Y0078600D01*
X0561250Y0080100D01*
X0562250Y0080100D01*
X0562250Y0080097D02*
X0561250Y0080097D01*
X0561250Y0079598D02*
X0562250Y0079598D01*
X0562250Y0079100D02*
X0561250Y0079100D01*
X0561250Y0078601D02*
X0562250Y0078601D01*
X0552250Y0082600D02*
X0551250Y0082600D01*
X0551250Y0084100D01*
X0552250Y0084100D01*
X0552250Y0082600D01*
X0552250Y0083088D02*
X0551250Y0083088D01*
X0551250Y0083586D02*
X0552250Y0083586D01*
X0552250Y0084085D02*
X0551250Y0084085D01*
X0532250Y0080100D02*
X0532250Y0078600D01*
X0531250Y0078600D01*
X0531250Y0080100D01*
X0532250Y0080100D01*
X0532250Y0080097D02*
X0531250Y0080097D01*
X0531250Y0079598D02*
X0532250Y0079598D01*
X0532250Y0079100D02*
X0531250Y0079100D01*
X0531250Y0078601D02*
X0532250Y0078601D01*
X0522250Y0082600D02*
X0521250Y0082600D01*
X0521250Y0084100D01*
X0522250Y0084100D01*
X0522250Y0082600D01*
X0522250Y0083088D02*
X0521250Y0083088D01*
X0521250Y0083586D02*
X0522250Y0083586D01*
X0522250Y0084085D02*
X0521250Y0084085D01*
X0470250Y0080100D02*
X0470250Y0078600D01*
X0469250Y0078600D01*
X0469250Y0080100D01*
X0470250Y0080100D01*
X0470250Y0080097D02*
X0469250Y0080097D01*
X0469250Y0079598D02*
X0470250Y0079598D01*
X0470250Y0079100D02*
X0469250Y0079100D01*
X0469250Y0078601D02*
X0470250Y0078601D01*
X0460250Y0082600D02*
X0459250Y0082600D01*
X0459250Y0084100D01*
X0460250Y0084100D01*
X0460250Y0082600D01*
X0460250Y0083088D02*
X0459250Y0083088D01*
X0459250Y0083586D02*
X0460250Y0083586D01*
X0460250Y0084085D02*
X0459250Y0084085D01*
X0440250Y0080100D02*
X0440250Y0078600D01*
X0439250Y0078600D01*
X0439250Y0080100D01*
X0440250Y0080100D01*
X0440250Y0080097D02*
X0439250Y0080097D01*
X0439250Y0079598D02*
X0440250Y0079598D01*
X0440250Y0079100D02*
X0439250Y0079100D01*
X0439250Y0078601D02*
X0440250Y0078601D01*
X0430250Y0082600D02*
X0429250Y0082600D01*
X0429250Y0084100D01*
X0430250Y0084100D01*
X0430250Y0082600D01*
X0430250Y0083088D02*
X0429250Y0083088D01*
X0429250Y0083586D02*
X0430250Y0083586D01*
X0430250Y0084085D02*
X0429250Y0084085D01*
X0378250Y0080100D02*
X0378250Y0078600D01*
X0377250Y0078600D01*
X0377250Y0080100D01*
X0378250Y0080100D01*
X0378250Y0080097D02*
X0377250Y0080097D01*
X0377250Y0079598D02*
X0378250Y0079598D01*
X0378250Y0079100D02*
X0377250Y0079100D01*
X0377250Y0078601D02*
X0378250Y0078601D01*
X0368250Y0082600D02*
X0367250Y0082600D01*
X0367250Y0084100D01*
X0368250Y0084100D01*
X0368250Y0082600D01*
X0368250Y0083088D02*
X0367250Y0083088D01*
X0367250Y0083586D02*
X0368250Y0083586D01*
X0368250Y0084085D02*
X0367250Y0084085D01*
X0348250Y0080100D02*
X0348250Y0078600D01*
X0347250Y0078600D01*
X0347250Y0080100D01*
X0348250Y0080100D01*
X0348250Y0080097D02*
X0347250Y0080097D01*
X0347250Y0079598D02*
X0348250Y0079598D01*
X0348250Y0079100D02*
X0347250Y0079100D01*
X0347250Y0078601D02*
X0348250Y0078601D01*
X0338250Y0082600D02*
X0337250Y0082600D01*
X0337250Y0084100D01*
X0338250Y0084100D01*
X0338250Y0082600D01*
X0338250Y0083088D02*
X0337250Y0083088D01*
X0337250Y0083586D02*
X0338250Y0083586D01*
X0338250Y0084085D02*
X0337250Y0084085D01*
X0286250Y0080100D02*
X0286250Y0078600D01*
X0285250Y0078600D01*
X0285250Y0080100D01*
X0286250Y0080100D01*
X0286250Y0080097D02*
X0285250Y0080097D01*
X0285250Y0079598D02*
X0286250Y0079598D01*
X0286250Y0079100D02*
X0285250Y0079100D01*
X0285250Y0078601D02*
X0286250Y0078601D01*
X0276250Y0082600D02*
X0275250Y0082600D01*
X0275250Y0084100D01*
X0276250Y0084100D01*
X0276250Y0082600D01*
X0276250Y0083088D02*
X0275250Y0083088D01*
X0275250Y0083586D02*
X0276250Y0083586D01*
X0276250Y0084085D02*
X0275250Y0084085D01*
X0256250Y0080100D02*
X0256250Y0078600D01*
X0255250Y0078600D01*
X0255250Y0080100D01*
X0256250Y0080100D01*
X0256250Y0080097D02*
X0255250Y0080097D01*
X0255250Y0079598D02*
X0256250Y0079598D01*
X0256250Y0079100D02*
X0255250Y0079100D01*
X0255250Y0078601D02*
X0256250Y0078601D01*
X0246250Y0082600D02*
X0245250Y0082600D01*
X0245250Y0084100D01*
X0246250Y0084100D01*
X0246250Y0082600D01*
X0246250Y0083088D02*
X0245250Y0083088D01*
X0245250Y0083586D02*
X0246250Y0083586D01*
X0246250Y0084085D02*
X0245250Y0084085D01*
X0194250Y0080100D02*
X0194250Y0078600D01*
X0193250Y0078600D01*
X0193250Y0080100D01*
X0194250Y0080100D01*
X0194250Y0080097D02*
X0193250Y0080097D01*
X0193250Y0079598D02*
X0194250Y0079598D01*
X0194250Y0079100D02*
X0193250Y0079100D01*
X0193250Y0078601D02*
X0194250Y0078601D01*
X0184250Y0082600D02*
X0183250Y0082600D01*
X0183250Y0084100D01*
X0184250Y0084100D01*
X0184250Y0082600D01*
X0184250Y0083088D02*
X0183250Y0083088D01*
X0183250Y0083586D02*
X0184250Y0083586D01*
X0184250Y0084085D02*
X0183250Y0084085D01*
X0164250Y0080100D02*
X0164250Y0078600D01*
X0163250Y0078600D01*
X0163250Y0080100D01*
X0164250Y0080100D01*
X0164250Y0080097D02*
X0163250Y0080097D01*
X0163250Y0079598D02*
X0164250Y0079598D01*
X0164250Y0079100D02*
X0163250Y0079100D01*
X0163250Y0078601D02*
X0164250Y0078601D01*
X0154250Y0082600D02*
X0153250Y0082600D01*
X0153250Y0084100D01*
X0154250Y0084100D01*
X0154250Y0082600D01*
X0154250Y0083088D02*
X0153250Y0083088D01*
X0153250Y0083586D02*
X0154250Y0083586D01*
X0154250Y0084085D02*
X0153250Y0084085D01*
X0102250Y0080100D02*
X0102250Y0078600D01*
X0101250Y0078600D01*
X0101250Y0080100D01*
X0102250Y0080100D01*
X0102250Y0080097D02*
X0101250Y0080097D01*
X0101250Y0079598D02*
X0102250Y0079598D01*
X0102250Y0079100D02*
X0101250Y0079100D01*
X0101250Y0078601D02*
X0102250Y0078601D01*
X0092250Y0082600D02*
X0091250Y0082600D01*
X0091250Y0084100D01*
X0092250Y0084100D01*
X0092250Y0082600D01*
X0092250Y0083088D02*
X0091250Y0083088D01*
X0091250Y0083586D02*
X0092250Y0083586D01*
X0092250Y0084085D02*
X0091250Y0084085D01*
X0072250Y0080100D02*
X0072250Y0078600D01*
X0071250Y0078600D01*
X0071250Y0080100D01*
X0072250Y0080100D01*
X0072250Y0080097D02*
X0071250Y0080097D01*
X0071250Y0079598D02*
X0072250Y0079598D01*
X0072250Y0079100D02*
X0071250Y0079100D01*
X0071250Y0078601D02*
X0072250Y0078601D01*
X0062250Y0082600D02*
X0061250Y0082600D01*
X0061250Y0084100D01*
X0062250Y0084100D01*
X0062250Y0082600D01*
X0062250Y0083088D02*
X0061250Y0083088D01*
X0061250Y0083586D02*
X0062250Y0083586D01*
X0062250Y0084085D02*
X0061250Y0084085D01*
X0071250Y0180600D02*
X0072250Y0180600D01*
X0072250Y0182100D01*
X0071250Y0182100D01*
X0071250Y0180600D01*
X0071250Y0180796D02*
X0072250Y0180796D01*
X0072250Y0181294D02*
X0071250Y0181294D01*
X0071250Y0181793D02*
X0072250Y0181793D01*
X0062250Y0184600D02*
X0061250Y0184600D01*
X0061250Y0186100D01*
X0062250Y0186100D01*
X0062250Y0184600D01*
X0062250Y0184784D02*
X0061250Y0184784D01*
X0061250Y0185283D02*
X0062250Y0185283D01*
X0062250Y0185781D02*
X0061250Y0185781D01*
X0091250Y0185781D02*
X0092250Y0185781D01*
X0092250Y0186100D02*
X0091250Y0186100D01*
X0091250Y0184600D01*
X0092250Y0184600D01*
X0092250Y0186100D01*
X0092250Y0185283D02*
X0091250Y0185283D01*
X0091250Y0184784D02*
X0092250Y0184784D01*
X0101250Y0182100D02*
X0101250Y0180600D01*
X0102250Y0180600D01*
X0102250Y0182100D01*
X0101250Y0182100D01*
X0101250Y0181793D02*
X0102250Y0181793D01*
X0102250Y0181294D02*
X0101250Y0181294D01*
X0101250Y0180796D02*
X0102250Y0180796D01*
X0153250Y0184600D02*
X0154250Y0184600D01*
X0154250Y0186100D01*
X0153250Y0186100D01*
X0153250Y0184600D01*
X0153250Y0184784D02*
X0154250Y0184784D01*
X0154250Y0185283D02*
X0153250Y0185283D01*
X0153250Y0185781D02*
X0154250Y0185781D01*
X0163250Y0182100D02*
X0163250Y0180600D01*
X0164250Y0180600D01*
X0164250Y0182100D01*
X0163250Y0182100D01*
X0163250Y0181793D02*
X0164250Y0181793D01*
X0164250Y0181294D02*
X0163250Y0181294D01*
X0163250Y0180796D02*
X0164250Y0180796D01*
X0183250Y0184600D02*
X0184250Y0184600D01*
X0184250Y0186100D01*
X0183250Y0186100D01*
X0183250Y0184600D01*
X0183250Y0184784D02*
X0184250Y0184784D01*
X0184250Y0185283D02*
X0183250Y0185283D01*
X0183250Y0185781D02*
X0184250Y0185781D01*
X0193250Y0182100D02*
X0193250Y0180600D01*
X0194250Y0180600D01*
X0194250Y0182100D01*
X0193250Y0182100D01*
X0193250Y0181793D02*
X0194250Y0181793D01*
X0194250Y0181294D02*
X0193250Y0181294D01*
X0193250Y0180796D02*
X0194250Y0180796D01*
X0245250Y0184600D02*
X0246250Y0184600D01*
X0246250Y0186100D01*
X0245250Y0186100D01*
X0245250Y0184600D01*
X0245250Y0184784D02*
X0246250Y0184784D01*
X0246250Y0185283D02*
X0245250Y0185283D01*
X0245250Y0185781D02*
X0246250Y0185781D01*
X0255250Y0182100D02*
X0255250Y0180600D01*
X0256250Y0180600D01*
X0256250Y0182100D01*
X0255250Y0182100D01*
X0255250Y0181793D02*
X0256250Y0181793D01*
X0256250Y0181294D02*
X0255250Y0181294D01*
X0255250Y0180796D02*
X0256250Y0180796D01*
X0275250Y0184600D02*
X0276250Y0184600D01*
X0276250Y0186100D01*
X0275250Y0186100D01*
X0275250Y0184600D01*
X0275250Y0184784D02*
X0276250Y0184784D01*
X0276250Y0185283D02*
X0275250Y0185283D01*
X0275250Y0185781D02*
X0276250Y0185781D01*
X0285250Y0182100D02*
X0285250Y0180600D01*
X0286250Y0180600D01*
X0286250Y0182100D01*
X0285250Y0182100D01*
X0285250Y0181793D02*
X0286250Y0181793D01*
X0286250Y0181294D02*
X0285250Y0181294D01*
X0285250Y0180796D02*
X0286250Y0180796D01*
X0337250Y0184600D02*
X0338250Y0184600D01*
X0338250Y0186100D01*
X0337250Y0186100D01*
X0337250Y0184600D01*
X0337250Y0184784D02*
X0338250Y0184784D01*
X0338250Y0185283D02*
X0337250Y0185283D01*
X0337250Y0185781D02*
X0338250Y0185781D01*
X0347250Y0182100D02*
X0347250Y0180600D01*
X0348250Y0180600D01*
X0348250Y0182100D01*
X0347250Y0182100D01*
X0347250Y0181793D02*
X0348250Y0181793D01*
X0348250Y0181294D02*
X0347250Y0181294D01*
X0347250Y0180796D02*
X0348250Y0180796D01*
X0367250Y0184600D02*
X0368250Y0184600D01*
X0368250Y0186100D01*
X0367250Y0186100D01*
X0367250Y0184600D01*
X0367250Y0184784D02*
X0368250Y0184784D01*
X0368250Y0185283D02*
X0367250Y0185283D01*
X0367250Y0185781D02*
X0368250Y0185781D01*
X0377250Y0182100D02*
X0377250Y0180600D01*
X0378250Y0180600D01*
X0378250Y0182100D01*
X0377250Y0182100D01*
X0377250Y0181793D02*
X0378250Y0181793D01*
X0378250Y0181294D02*
X0377250Y0181294D01*
X0377250Y0180796D02*
X0378250Y0180796D01*
X0429250Y0184600D02*
X0430250Y0184600D01*
X0430250Y0186100D01*
X0429250Y0186100D01*
X0429250Y0184600D01*
X0429250Y0184784D02*
X0430250Y0184784D01*
X0430250Y0185283D02*
X0429250Y0185283D01*
X0429250Y0185781D02*
X0430250Y0185781D01*
X0439250Y0182100D02*
X0439250Y0180600D01*
X0440250Y0180600D01*
X0440250Y0182100D01*
X0439250Y0182100D01*
X0439250Y0181793D02*
X0440250Y0181793D01*
X0440250Y0181294D02*
X0439250Y0181294D01*
X0439250Y0180796D02*
X0440250Y0180796D01*
X0459250Y0184600D02*
X0460250Y0184600D01*
X0460250Y0186100D01*
X0459250Y0186100D01*
X0459250Y0184600D01*
X0459250Y0184784D02*
X0460250Y0184784D01*
X0460250Y0185283D02*
X0459250Y0185283D01*
X0459250Y0185781D02*
X0460250Y0185781D01*
X0469250Y0182100D02*
X0469250Y0180600D01*
X0470250Y0180600D01*
X0470250Y0182100D01*
X0469250Y0182100D01*
X0469250Y0181793D02*
X0470250Y0181793D01*
X0470250Y0181294D02*
X0469250Y0181294D01*
X0469250Y0180796D02*
X0470250Y0180796D01*
X0521250Y0184600D02*
X0522250Y0184600D01*
X0522250Y0186100D01*
X0521250Y0186100D01*
X0521250Y0184600D01*
X0521250Y0184784D02*
X0522250Y0184784D01*
X0522250Y0185283D02*
X0521250Y0185283D01*
X0521250Y0185781D02*
X0522250Y0185781D01*
X0531250Y0182100D02*
X0531250Y0180600D01*
X0532250Y0180600D01*
X0532250Y0182100D01*
X0531250Y0182100D01*
X0531250Y0181793D02*
X0532250Y0181793D01*
X0532250Y0181294D02*
X0531250Y0181294D01*
X0531250Y0180796D02*
X0532250Y0180796D01*
X0551250Y0184600D02*
X0552250Y0184600D01*
X0552250Y0186100D01*
X0551250Y0186100D01*
X0551250Y0184600D01*
X0551250Y0184784D02*
X0552250Y0184784D01*
X0552250Y0185283D02*
X0551250Y0185283D01*
X0551250Y0185781D02*
X0552250Y0185781D01*
X0561250Y0182100D02*
X0561250Y0180600D01*
X0562250Y0180600D01*
X0562250Y0182100D01*
X0561250Y0182100D01*
X0561250Y0181793D02*
X0562250Y0181793D01*
X0562250Y0181294D02*
X0561250Y0181294D01*
X0561250Y0180796D02*
X0562250Y0180796D01*
X0613250Y0184600D02*
X0614250Y0184600D01*
X0614250Y0186100D01*
X0613250Y0186100D01*
X0613250Y0184600D01*
X0613250Y0184784D02*
X0614250Y0184784D01*
X0614250Y0185283D02*
X0613250Y0185283D01*
X0613250Y0185781D02*
X0614250Y0185781D01*
X0623250Y0182100D02*
X0623250Y0180600D01*
X0624250Y0180600D01*
X0624250Y0182100D01*
X0623250Y0182100D01*
X0623250Y0181793D02*
X0624250Y0181793D01*
X0624250Y0181294D02*
X0623250Y0181294D01*
X0623250Y0180796D02*
X0624250Y0180796D01*
X0643250Y0184600D02*
X0644250Y0184600D01*
X0644250Y0186100D01*
X0643250Y0186100D01*
X0643250Y0184600D01*
X0643250Y0184784D02*
X0644250Y0184784D01*
X0644250Y0185283D02*
X0643250Y0185283D01*
X0643250Y0185781D02*
X0644250Y0185781D01*
X0653250Y0182100D02*
X0653250Y0180600D01*
X0654250Y0180600D01*
X0654250Y0182100D01*
X0653250Y0182100D01*
X0653250Y0181793D02*
X0654250Y0181793D01*
X0654250Y0181294D02*
X0653250Y0181294D01*
X0653250Y0180796D02*
X0654250Y0180796D01*
X0705250Y0184600D02*
X0706250Y0184600D01*
X0706250Y0186100D01*
X0705250Y0186100D01*
X0705250Y0184600D01*
X0705250Y0184784D02*
X0706250Y0184784D01*
X0706250Y0185283D02*
X0705250Y0185283D01*
X0705250Y0185781D02*
X0706250Y0185781D01*
X0715250Y0182100D02*
X0715250Y0180600D01*
X0716250Y0180600D01*
X0716250Y0182100D01*
X0715250Y0182100D01*
X0715250Y0181793D02*
X0716250Y0181793D01*
X0716250Y0181294D02*
X0715250Y0181294D01*
X0715250Y0180796D02*
X0716250Y0180796D01*
X0735250Y0184600D02*
X0736250Y0184600D01*
X0736250Y0186100D01*
X0735250Y0186100D01*
X0735250Y0184600D01*
X0735250Y0184784D02*
X0736250Y0184784D01*
X0736250Y0185283D02*
X0735250Y0185283D01*
X0735250Y0185781D02*
X0736250Y0185781D01*
X0745250Y0182100D02*
X0745250Y0180600D01*
X0746250Y0180600D01*
X0746250Y0182100D01*
X0745250Y0182100D01*
X0745250Y0181793D02*
X0746250Y0181793D01*
X0746250Y0181294D02*
X0745250Y0181294D01*
X0745250Y0180796D02*
X0746250Y0180796D01*
X0746250Y0282600D02*
X0746250Y0284100D01*
X0745250Y0284100D01*
X0745250Y0282600D01*
X0746250Y0282600D01*
X0746250Y0282991D02*
X0745250Y0282991D01*
X0745250Y0283489D02*
X0746250Y0283489D01*
X0746250Y0283988D02*
X0745250Y0283988D01*
X0736250Y0286600D02*
X0735250Y0286600D01*
X0735250Y0288100D01*
X0736250Y0288100D01*
X0736250Y0286600D01*
X0736250Y0286979D02*
X0735250Y0286979D01*
X0735250Y0287477D02*
X0736250Y0287477D01*
X0736250Y0287976D02*
X0735250Y0287976D01*
X0716250Y0284100D02*
X0715250Y0284100D01*
X0715250Y0282600D01*
X0716250Y0282600D01*
X0716250Y0284100D01*
X0716250Y0283988D02*
X0715250Y0283988D01*
X0715250Y0283489D02*
X0716250Y0283489D01*
X0716250Y0282991D02*
X0715250Y0282991D01*
X0706250Y0286600D02*
X0705250Y0286600D01*
X0705250Y0288100D01*
X0706250Y0288100D01*
X0706250Y0286600D01*
X0706250Y0286979D02*
X0705250Y0286979D01*
X0705250Y0287477D02*
X0706250Y0287477D01*
X0706250Y0287976D02*
X0705250Y0287976D01*
X0654250Y0284100D02*
X0653250Y0284100D01*
X0653250Y0282600D01*
X0654250Y0282600D01*
X0654250Y0284100D01*
X0654250Y0283988D02*
X0653250Y0283988D01*
X0653250Y0283489D02*
X0654250Y0283489D01*
X0654250Y0282991D02*
X0653250Y0282991D01*
X0644250Y0286600D02*
X0643250Y0286600D01*
X0643250Y0288100D01*
X0644250Y0288100D01*
X0644250Y0286600D01*
X0644250Y0286979D02*
X0643250Y0286979D01*
X0643250Y0287477D02*
X0644250Y0287477D01*
X0644250Y0287976D02*
X0643250Y0287976D01*
X0624250Y0284100D02*
X0623250Y0284100D01*
X0623250Y0282600D01*
X0624250Y0282600D01*
X0624250Y0284100D01*
X0624250Y0283988D02*
X0623250Y0283988D01*
X0623250Y0283489D02*
X0624250Y0283489D01*
X0624250Y0282991D02*
X0623250Y0282991D01*
X0614250Y0286600D02*
X0613250Y0286600D01*
X0613250Y0288100D01*
X0614250Y0288100D01*
X0614250Y0286600D01*
X0614250Y0286979D02*
X0613250Y0286979D01*
X0613250Y0287477D02*
X0614250Y0287477D01*
X0614250Y0287976D02*
X0613250Y0287976D01*
X0562250Y0284100D02*
X0561250Y0284100D01*
X0561250Y0282600D01*
X0562250Y0282600D01*
X0562250Y0284100D01*
X0562250Y0283988D02*
X0561250Y0283988D01*
X0561250Y0283489D02*
X0562250Y0283489D01*
X0562250Y0282991D02*
X0561250Y0282991D01*
X0552250Y0286600D02*
X0551250Y0286600D01*
X0551250Y0288100D01*
X0552250Y0288100D01*
X0552250Y0286600D01*
X0552250Y0286979D02*
X0551250Y0286979D01*
X0551250Y0287477D02*
X0552250Y0287477D01*
X0552250Y0287976D02*
X0551250Y0287976D01*
X0532250Y0284100D02*
X0531250Y0284100D01*
X0531250Y0282600D01*
X0532250Y0282600D01*
X0532250Y0284100D01*
X0532250Y0283988D02*
X0531250Y0283988D01*
X0531250Y0283489D02*
X0532250Y0283489D01*
X0532250Y0282991D02*
X0531250Y0282991D01*
X0522250Y0286600D02*
X0521250Y0286600D01*
X0521250Y0288100D01*
X0522250Y0288100D01*
X0522250Y0286600D01*
X0522250Y0286979D02*
X0521250Y0286979D01*
X0521250Y0287477D02*
X0522250Y0287477D01*
X0522250Y0287976D02*
X0521250Y0287976D01*
X0470250Y0284100D02*
X0469250Y0284100D01*
X0469250Y0282600D01*
X0470250Y0282600D01*
X0470250Y0284100D01*
X0470250Y0283988D02*
X0469250Y0283988D01*
X0469250Y0283489D02*
X0470250Y0283489D01*
X0470250Y0282991D02*
X0469250Y0282991D01*
X0460250Y0286600D02*
X0459250Y0286600D01*
X0459250Y0288100D01*
X0460250Y0288100D01*
X0460250Y0286600D01*
X0460250Y0286979D02*
X0459250Y0286979D01*
X0459250Y0287477D02*
X0460250Y0287477D01*
X0460250Y0287976D02*
X0459250Y0287976D01*
X0440250Y0284100D02*
X0439250Y0284100D01*
X0439250Y0282600D01*
X0440250Y0282600D01*
X0440250Y0284100D01*
X0440250Y0283988D02*
X0439250Y0283988D01*
X0439250Y0283489D02*
X0440250Y0283489D01*
X0440250Y0282991D02*
X0439250Y0282991D01*
X0430250Y0286600D02*
X0429250Y0286600D01*
X0429250Y0288100D01*
X0430250Y0288100D01*
X0430250Y0286600D01*
X0430250Y0286979D02*
X0429250Y0286979D01*
X0429250Y0287477D02*
X0430250Y0287477D01*
X0430250Y0287976D02*
X0429250Y0287976D01*
X0378250Y0284100D02*
X0377250Y0284100D01*
X0377250Y0282600D01*
X0378250Y0282600D01*
X0378250Y0284100D01*
X0378250Y0283988D02*
X0377250Y0283988D01*
X0377250Y0283489D02*
X0378250Y0283489D01*
X0378250Y0282991D02*
X0377250Y0282991D01*
X0368250Y0286600D02*
X0367250Y0286600D01*
X0367250Y0288100D01*
X0368250Y0288100D01*
X0368250Y0286600D01*
X0368250Y0286979D02*
X0367250Y0286979D01*
X0367250Y0287477D02*
X0368250Y0287477D01*
X0368250Y0287976D02*
X0367250Y0287976D01*
X0348250Y0284100D02*
X0347250Y0284100D01*
X0347250Y0282600D01*
X0348250Y0282600D01*
X0348250Y0284100D01*
X0348250Y0283988D02*
X0347250Y0283988D01*
X0347250Y0283489D02*
X0348250Y0283489D01*
X0348250Y0282991D02*
X0347250Y0282991D01*
X0338250Y0286600D02*
X0337250Y0286600D01*
X0337250Y0288100D01*
X0338250Y0288100D01*
X0338250Y0286600D01*
X0338250Y0286979D02*
X0337250Y0286979D01*
X0337250Y0287477D02*
X0338250Y0287477D01*
X0338250Y0287976D02*
X0337250Y0287976D01*
X0286250Y0284100D02*
X0285250Y0284100D01*
X0285250Y0282600D01*
X0286250Y0282600D01*
X0286250Y0284100D01*
X0286250Y0283988D02*
X0285250Y0283988D01*
X0285250Y0283489D02*
X0286250Y0283489D01*
X0286250Y0282991D02*
X0285250Y0282991D01*
X0276250Y0286600D02*
X0275250Y0286600D01*
X0275250Y0288100D01*
X0276250Y0288100D01*
X0276250Y0286600D01*
X0276250Y0286979D02*
X0275250Y0286979D01*
X0275250Y0287477D02*
X0276250Y0287477D01*
X0276250Y0287976D02*
X0275250Y0287976D01*
X0256250Y0284100D02*
X0255250Y0284100D01*
X0255250Y0282600D01*
X0256250Y0282600D01*
X0256250Y0284100D01*
X0256250Y0283988D02*
X0255250Y0283988D01*
X0255250Y0283489D02*
X0256250Y0283489D01*
X0256250Y0282991D02*
X0255250Y0282991D01*
X0246250Y0286600D02*
X0245250Y0286600D01*
X0245250Y0288100D01*
X0246250Y0288100D01*
X0246250Y0286600D01*
X0246250Y0286979D02*
X0245250Y0286979D01*
X0245250Y0287477D02*
X0246250Y0287477D01*
X0246250Y0287976D02*
X0245250Y0287976D01*
X0194250Y0284100D02*
X0193250Y0284100D01*
X0193250Y0282600D01*
X0194250Y0282600D01*
X0194250Y0284100D01*
X0194250Y0283988D02*
X0193250Y0283988D01*
X0193250Y0283489D02*
X0194250Y0283489D01*
X0194250Y0282991D02*
X0193250Y0282991D01*
X0184250Y0286600D02*
X0183250Y0286600D01*
X0183250Y0288100D01*
X0184250Y0288100D01*
X0184250Y0286600D01*
X0184250Y0286979D02*
X0183250Y0286979D01*
X0183250Y0287477D02*
X0184250Y0287477D01*
X0184250Y0287976D02*
X0183250Y0287976D01*
X0164250Y0284100D02*
X0163250Y0284100D01*
X0163250Y0282600D01*
X0164250Y0282600D01*
X0164250Y0284100D01*
X0164250Y0283988D02*
X0163250Y0283988D01*
X0163250Y0283489D02*
X0164250Y0283489D01*
X0164250Y0282991D02*
X0163250Y0282991D01*
X0154250Y0286600D02*
X0153250Y0286600D01*
X0153250Y0288100D01*
X0154250Y0288100D01*
X0154250Y0286600D01*
X0154250Y0286979D02*
X0153250Y0286979D01*
X0153250Y0287477D02*
X0154250Y0287477D01*
X0154250Y0287976D02*
X0153250Y0287976D01*
X0102250Y0284100D02*
X0101250Y0284100D01*
X0101250Y0282600D01*
X0102250Y0282600D01*
X0102250Y0284100D01*
X0102250Y0283988D02*
X0101250Y0283988D01*
X0101250Y0283489D02*
X0102250Y0283489D01*
X0102250Y0282991D02*
X0101250Y0282991D01*
X0092250Y0286600D02*
X0091250Y0286600D01*
X0091250Y0288100D01*
X0092250Y0288100D01*
X0092250Y0286600D01*
X0092250Y0286979D02*
X0091250Y0286979D01*
X0091250Y0287477D02*
X0092250Y0287477D01*
X0092250Y0287976D02*
X0091250Y0287976D01*
X0072250Y0284100D02*
X0071250Y0284100D01*
X0071250Y0282600D01*
X0072250Y0282600D01*
X0072250Y0284100D01*
X0072250Y0283988D02*
X0071250Y0283988D01*
X0071250Y0283489D02*
X0072250Y0283489D01*
X0072250Y0282991D02*
X0071250Y0282991D01*
X0062250Y0286600D02*
X0061250Y0286600D01*
X0061250Y0288100D01*
X0062250Y0288100D01*
X0062250Y0286600D01*
X0062250Y0286979D02*
X0061250Y0286979D01*
X0061250Y0287477D02*
X0062250Y0287477D01*
X0062250Y0287976D02*
X0061250Y0287976D01*
X0071250Y0384600D02*
X0072250Y0384600D01*
X0072250Y0386100D01*
X0071250Y0386100D01*
X0071250Y0384600D01*
X0071250Y0384687D02*
X0072250Y0384687D01*
X0072250Y0385186D02*
X0071250Y0385186D01*
X0071250Y0385684D02*
X0072250Y0385684D01*
X0062250Y0388600D02*
X0061250Y0388600D01*
X0061250Y0390100D01*
X0062250Y0390100D01*
X0062250Y0388600D01*
X0062250Y0388675D02*
X0061250Y0388675D01*
X0061250Y0389174D02*
X0062250Y0389174D01*
X0062250Y0389672D02*
X0061250Y0389672D01*
X0091250Y0389672D02*
X0092250Y0389672D01*
X0092250Y0390100D02*
X0091250Y0390100D01*
X0091250Y0388600D01*
X0092250Y0388600D01*
X0092250Y0390100D01*
X0092250Y0389174D02*
X0091250Y0389174D01*
X0091250Y0388675D02*
X0092250Y0388675D01*
X0101250Y0386100D02*
X0102250Y0386100D01*
X0102250Y0384600D01*
X0101250Y0384600D01*
X0101250Y0386100D01*
X0101250Y0385684D02*
X0102250Y0385684D01*
X0102250Y0385186D02*
X0101250Y0385186D01*
X0101250Y0384687D02*
X0102250Y0384687D01*
X0153250Y0388600D02*
X0154250Y0388600D01*
X0154250Y0390100D01*
X0153250Y0390100D01*
X0153250Y0388600D01*
X0153250Y0388675D02*
X0154250Y0388675D01*
X0154250Y0389174D02*
X0153250Y0389174D01*
X0153250Y0389672D02*
X0154250Y0389672D01*
X0163250Y0386100D02*
X0164250Y0386100D01*
X0164250Y0384600D01*
X0163250Y0384600D01*
X0163250Y0386100D01*
X0163250Y0385684D02*
X0164250Y0385684D01*
X0164250Y0385186D02*
X0163250Y0385186D01*
X0163250Y0384687D02*
X0164250Y0384687D01*
X0183250Y0388600D02*
X0184250Y0388600D01*
X0184250Y0390100D01*
X0183250Y0390100D01*
X0183250Y0388600D01*
X0183250Y0388675D02*
X0184250Y0388675D01*
X0184250Y0389174D02*
X0183250Y0389174D01*
X0183250Y0389672D02*
X0184250Y0389672D01*
X0193250Y0386100D02*
X0194250Y0386100D01*
X0194250Y0384600D01*
X0193250Y0384600D01*
X0193250Y0386100D01*
X0193250Y0385684D02*
X0194250Y0385684D01*
X0194250Y0385186D02*
X0193250Y0385186D01*
X0193250Y0384687D02*
X0194250Y0384687D01*
X0245250Y0388600D02*
X0246250Y0388600D01*
X0246250Y0390100D01*
X0245250Y0390100D01*
X0245250Y0388600D01*
X0245250Y0388675D02*
X0246250Y0388675D01*
X0246250Y0389174D02*
X0245250Y0389174D01*
X0245250Y0389672D02*
X0246250Y0389672D01*
X0255250Y0386100D02*
X0256250Y0386100D01*
X0256250Y0384600D01*
X0255250Y0384600D01*
X0255250Y0386100D01*
X0255250Y0385684D02*
X0256250Y0385684D01*
X0256250Y0385186D02*
X0255250Y0385186D01*
X0255250Y0384687D02*
X0256250Y0384687D01*
X0275250Y0388600D02*
X0276250Y0388600D01*
X0276250Y0390100D01*
X0275250Y0390100D01*
X0275250Y0388600D01*
X0275250Y0388675D02*
X0276250Y0388675D01*
X0276250Y0389174D02*
X0275250Y0389174D01*
X0275250Y0389672D02*
X0276250Y0389672D01*
X0285250Y0386100D02*
X0286250Y0386100D01*
X0286250Y0384600D01*
X0285250Y0384600D01*
X0285250Y0386100D01*
X0285250Y0385684D02*
X0286250Y0385684D01*
X0286250Y0385186D02*
X0285250Y0385186D01*
X0285250Y0384687D02*
X0286250Y0384687D01*
X0337250Y0388600D02*
X0338250Y0388600D01*
X0338250Y0390100D01*
X0337250Y0390100D01*
X0337250Y0388600D01*
X0337250Y0388675D02*
X0338250Y0388675D01*
X0338250Y0389174D02*
X0337250Y0389174D01*
X0337250Y0389672D02*
X0338250Y0389672D01*
X0347250Y0386100D02*
X0348250Y0386100D01*
X0348250Y0384600D01*
X0347250Y0384600D01*
X0347250Y0386100D01*
X0347250Y0385684D02*
X0348250Y0385684D01*
X0348250Y0385186D02*
X0347250Y0385186D01*
X0347250Y0384687D02*
X0348250Y0384687D01*
X0367250Y0388600D02*
X0368250Y0388600D01*
X0368250Y0390100D01*
X0367250Y0390100D01*
X0367250Y0388600D01*
X0367250Y0388675D02*
X0368250Y0388675D01*
X0368250Y0389174D02*
X0367250Y0389174D01*
X0367250Y0389672D02*
X0368250Y0389672D01*
X0377250Y0386100D02*
X0378250Y0386100D01*
X0378250Y0384600D01*
X0377250Y0384600D01*
X0377250Y0386100D01*
X0377250Y0385684D02*
X0378250Y0385684D01*
X0378250Y0385186D02*
X0377250Y0385186D01*
X0377250Y0384687D02*
X0378250Y0384687D01*
X0429250Y0388600D02*
X0430250Y0388600D01*
X0430250Y0390100D01*
X0429250Y0390100D01*
X0429250Y0388600D01*
X0429250Y0388675D02*
X0430250Y0388675D01*
X0430250Y0389174D02*
X0429250Y0389174D01*
X0429250Y0389672D02*
X0430250Y0389672D01*
X0439250Y0386100D02*
X0440250Y0386100D01*
X0440250Y0384600D01*
X0439250Y0384600D01*
X0439250Y0386100D01*
X0439250Y0385684D02*
X0440250Y0385684D01*
X0440250Y0385186D02*
X0439250Y0385186D01*
X0439250Y0384687D02*
X0440250Y0384687D01*
X0459250Y0388600D02*
X0460250Y0388600D01*
X0460250Y0390100D01*
X0459250Y0390100D01*
X0459250Y0388600D01*
X0459250Y0388675D02*
X0460250Y0388675D01*
X0460250Y0389174D02*
X0459250Y0389174D01*
X0459250Y0389672D02*
X0460250Y0389672D01*
X0469250Y0386100D02*
X0470250Y0386100D01*
X0470250Y0384600D01*
X0469250Y0384600D01*
X0469250Y0386100D01*
X0469250Y0385684D02*
X0470250Y0385684D01*
X0470250Y0385186D02*
X0469250Y0385186D01*
X0469250Y0384687D02*
X0470250Y0384687D01*
X0521250Y0388600D02*
X0522250Y0388600D01*
X0522250Y0390100D01*
X0521250Y0390100D01*
X0521250Y0388600D01*
X0521250Y0388675D02*
X0522250Y0388675D01*
X0522250Y0389174D02*
X0521250Y0389174D01*
X0521250Y0389672D02*
X0522250Y0389672D01*
X0531250Y0386100D02*
X0532250Y0386100D01*
X0532250Y0384600D01*
X0531250Y0384600D01*
X0531250Y0386100D01*
X0531250Y0385684D02*
X0532250Y0385684D01*
X0532250Y0385186D02*
X0531250Y0385186D01*
X0531250Y0384687D02*
X0532250Y0384687D01*
X0551250Y0388600D02*
X0552250Y0388600D01*
X0552250Y0390100D01*
X0551250Y0390100D01*
X0551250Y0388600D01*
X0551250Y0388675D02*
X0552250Y0388675D01*
X0552250Y0389174D02*
X0551250Y0389174D01*
X0551250Y0389672D02*
X0552250Y0389672D01*
X0561250Y0386100D02*
X0562250Y0386100D01*
X0562250Y0384600D01*
X0561250Y0384600D01*
X0561250Y0386100D01*
X0561250Y0385684D02*
X0562250Y0385684D01*
X0562250Y0385186D02*
X0561250Y0385186D01*
X0561250Y0384687D02*
X0562250Y0384687D01*
X0613250Y0388600D02*
X0614250Y0388600D01*
X0614250Y0390100D01*
X0613250Y0390100D01*
X0613250Y0388600D01*
X0613250Y0388675D02*
X0614250Y0388675D01*
X0614250Y0389174D02*
X0613250Y0389174D01*
X0613250Y0389672D02*
X0614250Y0389672D01*
X0623250Y0386100D02*
X0624250Y0386100D01*
X0624250Y0384600D01*
X0623250Y0384600D01*
X0623250Y0386100D01*
X0623250Y0385684D02*
X0624250Y0385684D01*
X0624250Y0385186D02*
X0623250Y0385186D01*
X0623250Y0384687D02*
X0624250Y0384687D01*
X0643250Y0388600D02*
X0644250Y0388600D01*
X0644250Y0390100D01*
X0643250Y0390100D01*
X0643250Y0388600D01*
X0643250Y0388675D02*
X0644250Y0388675D01*
X0644250Y0389174D02*
X0643250Y0389174D01*
X0643250Y0389672D02*
X0644250Y0389672D01*
X0653250Y0386100D02*
X0654250Y0386100D01*
X0654250Y0384600D01*
X0653250Y0384600D01*
X0653250Y0386100D01*
X0653250Y0385684D02*
X0654250Y0385684D01*
X0654250Y0385186D02*
X0653250Y0385186D01*
X0653250Y0384687D02*
X0654250Y0384687D01*
X0705250Y0388600D02*
X0706250Y0388600D01*
X0706250Y0390100D01*
X0705250Y0390100D01*
X0705250Y0388600D01*
X0705250Y0388675D02*
X0706250Y0388675D01*
X0706250Y0389174D02*
X0705250Y0389174D01*
X0705250Y0389672D02*
X0706250Y0389672D01*
X0715250Y0386100D02*
X0716250Y0386100D01*
X0716250Y0384600D01*
X0715250Y0384600D01*
X0715250Y0386100D01*
X0715250Y0385684D02*
X0716250Y0385684D01*
X0716250Y0385186D02*
X0715250Y0385186D01*
X0715250Y0384687D02*
X0716250Y0384687D01*
X0735250Y0388600D02*
X0736250Y0388600D01*
X0736250Y0390100D01*
X0735250Y0390100D01*
X0735250Y0388600D01*
X0735250Y0388675D02*
X0736250Y0388675D01*
X0736250Y0389174D02*
X0735250Y0389174D01*
X0735250Y0389672D02*
X0736250Y0389672D01*
X0745250Y0386100D02*
X0746250Y0386100D01*
X0746250Y0384600D01*
X0745250Y0384600D01*
X0745250Y0386100D01*
X0745250Y0385684D02*
X0746250Y0385684D01*
X0746250Y0385186D02*
X0745250Y0385186D01*
X0745250Y0384687D02*
X0746250Y0384687D01*
X0746250Y0486600D02*
X0746250Y0488100D01*
X0745250Y0488100D01*
X0745250Y0486600D01*
X0746250Y0486600D01*
X0746250Y0486882D02*
X0745250Y0486882D01*
X0745250Y0487380D02*
X0746250Y0487380D01*
X0746250Y0487879D02*
X0745250Y0487879D01*
X0736250Y0490600D02*
X0735250Y0490600D01*
X0735250Y0492100D01*
X0736250Y0492100D01*
X0736250Y0490600D01*
X0736250Y0490870D02*
X0735250Y0490870D01*
X0735250Y0491369D02*
X0736250Y0491369D01*
X0736250Y0491867D02*
X0735250Y0491867D01*
X0716250Y0488100D02*
X0715250Y0488100D01*
X0715250Y0486600D01*
X0716250Y0486600D01*
X0716250Y0488100D01*
X0716250Y0487879D02*
X0715250Y0487879D01*
X0715250Y0487380D02*
X0716250Y0487380D01*
X0716250Y0486882D02*
X0715250Y0486882D01*
X0706250Y0490600D02*
X0705250Y0490600D01*
X0705250Y0492100D01*
X0706250Y0492100D01*
X0706250Y0490600D01*
X0706250Y0490870D02*
X0705250Y0490870D01*
X0705250Y0491369D02*
X0706250Y0491369D01*
X0706250Y0491867D02*
X0705250Y0491867D01*
X0654250Y0488100D02*
X0653250Y0488100D01*
X0653250Y0486600D01*
X0654250Y0486600D01*
X0654250Y0488100D01*
X0654250Y0487879D02*
X0653250Y0487879D01*
X0653250Y0487380D02*
X0654250Y0487380D01*
X0654250Y0486882D02*
X0653250Y0486882D01*
X0644250Y0490600D02*
X0643250Y0490600D01*
X0643250Y0492100D01*
X0644250Y0492100D01*
X0644250Y0490600D01*
X0644250Y0490870D02*
X0643250Y0490870D01*
X0643250Y0491369D02*
X0644250Y0491369D01*
X0644250Y0491867D02*
X0643250Y0491867D01*
X0624250Y0488100D02*
X0623250Y0488100D01*
X0623250Y0486600D01*
X0624250Y0486600D01*
X0624250Y0488100D01*
X0624250Y0487879D02*
X0623250Y0487879D01*
X0623250Y0487380D02*
X0624250Y0487380D01*
X0624250Y0486882D02*
X0623250Y0486882D01*
X0614250Y0490600D02*
X0613250Y0490600D01*
X0613250Y0492100D01*
X0614250Y0492100D01*
X0614250Y0490600D01*
X0614250Y0490870D02*
X0613250Y0490870D01*
X0613250Y0491369D02*
X0614250Y0491369D01*
X0614250Y0491867D02*
X0613250Y0491867D01*
X0562250Y0488100D02*
X0561250Y0488100D01*
X0561250Y0486600D01*
X0562250Y0486600D01*
X0562250Y0488100D01*
X0562250Y0487879D02*
X0561250Y0487879D01*
X0561250Y0487380D02*
X0562250Y0487380D01*
X0562250Y0486882D02*
X0561250Y0486882D01*
X0552250Y0490600D02*
X0551250Y0490600D01*
X0551250Y0492100D01*
X0552250Y0492100D01*
X0552250Y0490600D01*
X0552250Y0490870D02*
X0551250Y0490870D01*
X0551250Y0491369D02*
X0552250Y0491369D01*
X0552250Y0491867D02*
X0551250Y0491867D01*
X0532250Y0488100D02*
X0531250Y0488100D01*
X0531250Y0486600D01*
X0532250Y0486600D01*
X0532250Y0488100D01*
X0532250Y0487879D02*
X0531250Y0487879D01*
X0531250Y0487380D02*
X0532250Y0487380D01*
X0532250Y0486882D02*
X0531250Y0486882D01*
X0522250Y0490600D02*
X0521250Y0490600D01*
X0521250Y0492100D01*
X0522250Y0492100D01*
X0522250Y0490600D01*
X0522250Y0490870D02*
X0521250Y0490870D01*
X0521250Y0491369D02*
X0522250Y0491369D01*
X0522250Y0491867D02*
X0521250Y0491867D01*
X0470250Y0488100D02*
X0469250Y0488100D01*
X0469250Y0486600D01*
X0470250Y0486600D01*
X0470250Y0488100D01*
X0470250Y0487879D02*
X0469250Y0487879D01*
X0469250Y0487380D02*
X0470250Y0487380D01*
X0470250Y0486882D02*
X0469250Y0486882D01*
X0460250Y0490600D02*
X0459250Y0490600D01*
X0459250Y0492100D01*
X0460250Y0492100D01*
X0460250Y0490600D01*
X0460250Y0490870D02*
X0459250Y0490870D01*
X0459250Y0491369D02*
X0460250Y0491369D01*
X0460250Y0491867D02*
X0459250Y0491867D01*
X0440250Y0488100D02*
X0439250Y0488100D01*
X0439250Y0486600D01*
X0440250Y0486600D01*
X0440250Y0488100D01*
X0440250Y0487879D02*
X0439250Y0487879D01*
X0439250Y0487380D02*
X0440250Y0487380D01*
X0440250Y0486882D02*
X0439250Y0486882D01*
X0430250Y0490600D02*
X0429250Y0490600D01*
X0429250Y0492100D01*
X0430250Y0492100D01*
X0430250Y0490600D01*
X0430250Y0490870D02*
X0429250Y0490870D01*
X0429250Y0491369D02*
X0430250Y0491369D01*
X0430250Y0491867D02*
X0429250Y0491867D01*
X0378250Y0488100D02*
X0377250Y0488100D01*
X0377250Y0486600D01*
X0378250Y0486600D01*
X0378250Y0488100D01*
X0378250Y0487879D02*
X0377250Y0487879D01*
X0377250Y0487380D02*
X0378250Y0487380D01*
X0378250Y0486882D02*
X0377250Y0486882D01*
X0368250Y0490600D02*
X0367250Y0490600D01*
X0367250Y0492100D01*
X0368250Y0492100D01*
X0368250Y0490600D01*
X0368250Y0490870D02*
X0367250Y0490870D01*
X0367250Y0491369D02*
X0368250Y0491369D01*
X0368250Y0491867D02*
X0367250Y0491867D01*
X0348250Y0488100D02*
X0347250Y0488100D01*
X0347250Y0486600D01*
X0348250Y0486600D01*
X0348250Y0488100D01*
X0348250Y0487879D02*
X0347250Y0487879D01*
X0347250Y0487380D02*
X0348250Y0487380D01*
X0348250Y0486882D02*
X0347250Y0486882D01*
X0338250Y0490600D02*
X0337250Y0490600D01*
X0337250Y0492100D01*
X0338250Y0492100D01*
X0338250Y0490600D01*
X0338250Y0490870D02*
X0337250Y0490870D01*
X0337250Y0491369D02*
X0338250Y0491369D01*
X0338250Y0491867D02*
X0337250Y0491867D01*
X0286250Y0488100D02*
X0285250Y0488100D01*
X0285250Y0486600D01*
X0286250Y0486600D01*
X0286250Y0488100D01*
X0286250Y0487879D02*
X0285250Y0487879D01*
X0285250Y0487380D02*
X0286250Y0487380D01*
X0286250Y0486882D02*
X0285250Y0486882D01*
X0276250Y0490600D02*
X0275250Y0490600D01*
X0275250Y0492100D01*
X0276250Y0492100D01*
X0276250Y0490600D01*
X0276250Y0490870D02*
X0275250Y0490870D01*
X0275250Y0491369D02*
X0276250Y0491369D01*
X0276250Y0491867D02*
X0275250Y0491867D01*
X0256250Y0488100D02*
X0255250Y0488100D01*
X0255250Y0486600D01*
X0256250Y0486600D01*
X0256250Y0488100D01*
X0256250Y0487879D02*
X0255250Y0487879D01*
X0255250Y0487380D02*
X0256250Y0487380D01*
X0256250Y0486882D02*
X0255250Y0486882D01*
X0246250Y0490600D02*
X0245250Y0490600D01*
X0245250Y0492100D01*
X0246250Y0492100D01*
X0246250Y0490600D01*
X0246250Y0490870D02*
X0245250Y0490870D01*
X0245250Y0491369D02*
X0246250Y0491369D01*
X0246250Y0491867D02*
X0245250Y0491867D01*
X0194250Y0488100D02*
X0193250Y0488100D01*
X0193250Y0486600D01*
X0194250Y0486600D01*
X0194250Y0488100D01*
X0194250Y0487879D02*
X0193250Y0487879D01*
X0193250Y0487380D02*
X0194250Y0487380D01*
X0194250Y0486882D02*
X0193250Y0486882D01*
X0184250Y0490600D02*
X0183250Y0490600D01*
X0183250Y0492100D01*
X0184250Y0492100D01*
X0184250Y0490600D01*
X0184250Y0490870D02*
X0183250Y0490870D01*
X0183250Y0491369D02*
X0184250Y0491369D01*
X0184250Y0491867D02*
X0183250Y0491867D01*
X0164250Y0488100D02*
X0163250Y0488100D01*
X0163250Y0486600D01*
X0164250Y0486600D01*
X0164250Y0488100D01*
X0164250Y0487879D02*
X0163250Y0487879D01*
X0163250Y0487380D02*
X0164250Y0487380D01*
X0164250Y0486882D02*
X0163250Y0486882D01*
X0154250Y0490600D02*
X0153250Y0490600D01*
X0153250Y0492100D01*
X0154250Y0492100D01*
X0154250Y0490600D01*
X0154250Y0490870D02*
X0153250Y0490870D01*
X0153250Y0491369D02*
X0154250Y0491369D01*
X0154250Y0491867D02*
X0153250Y0491867D01*
X0102250Y0488100D02*
X0101250Y0488100D01*
X0101250Y0486600D01*
X0102250Y0486600D01*
X0102250Y0488100D01*
X0102250Y0487879D02*
X0101250Y0487879D01*
X0101250Y0487380D02*
X0102250Y0487380D01*
X0102250Y0486882D02*
X0101250Y0486882D01*
X0092250Y0490600D02*
X0091250Y0490600D01*
X0091250Y0492100D01*
X0092250Y0492100D01*
X0092250Y0490600D01*
X0092250Y0490870D02*
X0091250Y0490870D01*
X0091250Y0491369D02*
X0092250Y0491369D01*
X0092250Y0491867D02*
X0091250Y0491867D01*
X0072250Y0488100D02*
X0071250Y0488100D01*
X0071250Y0486600D01*
X0072250Y0486600D01*
X0072250Y0488100D01*
X0072250Y0487879D02*
X0071250Y0487879D01*
X0071250Y0487380D02*
X0072250Y0487380D01*
X0072250Y0486882D02*
X0071250Y0486882D01*
X0062250Y0490600D02*
X0061250Y0490600D01*
X0061250Y0492100D01*
X0062250Y0492100D01*
X0062250Y0490600D01*
X0062250Y0490870D02*
X0061250Y0490870D01*
X0061250Y0491369D02*
X0062250Y0491369D01*
X0062250Y0491867D02*
X0061250Y0491867D01*
D13*
X0038750Y0526750D03*
X0108750Y0526750D03*
X0130750Y0526750D03*
X0200750Y0526750D03*
X0222750Y0526750D03*
X0292750Y0526750D03*
X0314750Y0526750D03*
X0384750Y0526750D03*
X0406750Y0526750D03*
X0476750Y0526750D03*
X0498750Y0526750D03*
X0568750Y0526750D03*
X0590750Y0526750D03*
X0660750Y0526750D03*
X0682750Y0526750D03*
X0752750Y0526750D03*
X0752750Y0424750D03*
X0682750Y0424750D03*
X0660750Y0424750D03*
X0590750Y0424750D03*
X0568750Y0424750D03*
X0498750Y0424750D03*
X0476750Y0424750D03*
X0406750Y0424750D03*
X0384750Y0424750D03*
X0314750Y0424750D03*
X0292750Y0424750D03*
X0222750Y0424750D03*
X0200750Y0424750D03*
X0130750Y0424750D03*
X0108750Y0424750D03*
X0038750Y0424750D03*
X0038750Y0322750D03*
X0108750Y0322750D03*
X0130750Y0322750D03*
X0200750Y0322750D03*
X0222750Y0322750D03*
X0292750Y0322750D03*
X0314750Y0322750D03*
X0384750Y0322750D03*
X0406750Y0322750D03*
X0476750Y0322750D03*
X0498750Y0322750D03*
X0568750Y0322750D03*
X0590750Y0322750D03*
X0660750Y0322750D03*
X0682750Y0322750D03*
X0752750Y0322750D03*
X0752750Y0220750D03*
X0682750Y0220750D03*
X0660750Y0220750D03*
X0590750Y0220750D03*
X0568750Y0220750D03*
X0498750Y0220750D03*
X0476750Y0220750D03*
X0406750Y0220750D03*
X0384750Y0220750D03*
X0314750Y0220750D03*
X0292750Y0220750D03*
X0222750Y0220750D03*
X0200750Y0220750D03*
X0130750Y0220750D03*
X0108750Y0220750D03*
X0038750Y0220750D03*
X0038750Y0118750D03*
X0108750Y0118750D03*
X0130750Y0118750D03*
X0200750Y0118750D03*
X0222750Y0118750D03*
X0292750Y0118750D03*
X0314750Y0118750D03*
X0384750Y0118750D03*
X0406750Y0118750D03*
X0476750Y0118750D03*
X0498750Y0118750D03*
X0568750Y0118750D03*
X0590750Y0118750D03*
X0660750Y0118750D03*
X0682750Y0118750D03*
X0752750Y0118750D03*
D14*
X0757750Y0108750D03*
X0676350Y0060350D03*
X0665750Y0108750D03*
X0676350Y0162350D03*
X0665750Y0210750D03*
X0676350Y0264350D03*
X0665750Y0312750D03*
X0676350Y0366350D03*
X0665750Y0414750D03*
X0676350Y0468350D03*
X0665750Y0516750D03*
X0584350Y0468350D03*
X0573750Y0516750D03*
X0492350Y0468350D03*
X0481750Y0516750D03*
X0400350Y0468350D03*
X0389750Y0516750D03*
X0308350Y0468350D03*
X0297750Y0516750D03*
X0216350Y0468350D03*
X0205750Y0516750D03*
X0124350Y0468350D03*
X0113750Y0516750D03*
X0032350Y0468350D03*
X0113750Y0414750D03*
X0124350Y0366350D03*
X0113750Y0312750D03*
X0124350Y0264350D03*
X0113750Y0210750D03*
X0124350Y0162350D03*
X0113750Y0108750D03*
X0124350Y0060350D03*
X0205750Y0108750D03*
X0216350Y0060350D03*
X0297750Y0108750D03*
X0308350Y0060350D03*
X0389750Y0108750D03*
X0400350Y0060350D03*
X0481750Y0108750D03*
X0492350Y0060350D03*
X0573750Y0108750D03*
X0584350Y0060350D03*
X0584350Y0162350D03*
X0573750Y0210750D03*
X0584350Y0264350D03*
X0573750Y0312750D03*
X0584350Y0366350D03*
X0573750Y0414750D03*
X0492350Y0366350D03*
X0481750Y0414750D03*
X0400350Y0366350D03*
X0389750Y0414750D03*
X0308350Y0366350D03*
X0297750Y0414750D03*
X0216350Y0366350D03*
X0205750Y0414750D03*
X0205750Y0312750D03*
X0216350Y0264350D03*
X0205750Y0210750D03*
X0216350Y0162350D03*
X0297750Y0210750D03*
X0308350Y0162350D03*
X0389750Y0210750D03*
X0400350Y0162350D03*
X0481750Y0210750D03*
X0492350Y0162350D03*
X0492350Y0264350D03*
X0481750Y0312750D03*
X0400350Y0264350D03*
X0389750Y0312750D03*
X0308350Y0264350D03*
X0297750Y0312750D03*
X0032350Y0264350D03*
X0032350Y0162350D03*
X0032350Y0060350D03*
X0032350Y0366350D03*
X0757750Y0414750D03*
X0757750Y0312750D03*
X0757750Y0210750D03*
X0757750Y0516750D03*
M02*
