G75*
%MOIN*%
%OFA0B0*%
%FSLAX25Y25*%
%IPPOS*%
%LPD*%
%AMOC8*
5,1,8,0,0,1.08239X$1,22.5*
%
%ADD10R,0.05512X0.06299*%
%ADD11R,0.04331X0.03937*%
%ADD12R,0.03937X0.04331*%
%ADD13R,0.04724X0.02362*%
D10*
X0038338Y0066250D03*
X0049362Y0066250D03*
X0049362Y0086750D03*
X0038338Y0086750D03*
X0130338Y0086750D03*
X0141362Y0086750D03*
X0141362Y0066250D03*
X0130338Y0066250D03*
X0222338Y0066250D03*
X0233362Y0066250D03*
X0233362Y0086750D03*
X0222338Y0086750D03*
X0314338Y0086750D03*
X0325362Y0086750D03*
X0325362Y0066250D03*
X0314338Y0066250D03*
X0406338Y0066250D03*
X0417362Y0066250D03*
X0417362Y0086750D03*
X0406338Y0086750D03*
X0498338Y0086750D03*
X0509362Y0086750D03*
X0509362Y0066250D03*
X0498338Y0066250D03*
X0590338Y0066250D03*
X0601362Y0066250D03*
X0601362Y0086750D03*
X0590338Y0086750D03*
X0682338Y0086750D03*
X0693362Y0086750D03*
X0693362Y0066250D03*
X0682338Y0066250D03*
X0682338Y0168250D03*
X0693362Y0168250D03*
X0693362Y0188750D03*
X0682338Y0188750D03*
X0601362Y0188750D03*
X0590338Y0188750D03*
X0590338Y0168250D03*
X0601362Y0168250D03*
X0509362Y0168250D03*
X0498338Y0168250D03*
X0498338Y0188750D03*
X0509362Y0188750D03*
X0417362Y0188750D03*
X0406338Y0188750D03*
X0406338Y0168250D03*
X0417362Y0168250D03*
X0325362Y0168250D03*
X0314338Y0168250D03*
X0314338Y0188750D03*
X0325362Y0188750D03*
X0233362Y0188750D03*
X0222338Y0188750D03*
X0222338Y0168250D03*
X0233362Y0168250D03*
X0141362Y0168250D03*
X0130338Y0168250D03*
X0130338Y0188750D03*
X0141362Y0188750D03*
X0049362Y0188750D03*
X0038338Y0188750D03*
X0038338Y0168250D03*
X0049362Y0168250D03*
X0049362Y0270250D03*
X0038338Y0270250D03*
X0038338Y0290750D03*
X0049362Y0290750D03*
X0130338Y0290750D03*
X0141362Y0290750D03*
X0141362Y0270250D03*
X0130338Y0270250D03*
X0222338Y0270250D03*
X0233362Y0270250D03*
X0233362Y0290750D03*
X0222338Y0290750D03*
X0314338Y0290750D03*
X0325362Y0290750D03*
X0325362Y0270250D03*
X0314338Y0270250D03*
X0406338Y0270250D03*
X0417362Y0270250D03*
X0417362Y0290750D03*
X0406338Y0290750D03*
X0498338Y0290750D03*
X0509362Y0290750D03*
X0509362Y0270250D03*
X0498338Y0270250D03*
X0590338Y0270250D03*
X0601362Y0270250D03*
X0601362Y0290750D03*
X0590338Y0290750D03*
X0682338Y0290750D03*
X0693362Y0290750D03*
X0693362Y0270250D03*
X0682338Y0270250D03*
X0682338Y0372250D03*
X0693362Y0372250D03*
X0693362Y0392750D03*
X0682338Y0392750D03*
X0601362Y0392750D03*
X0590338Y0392750D03*
X0590338Y0372250D03*
X0601362Y0372250D03*
X0509362Y0372250D03*
X0498338Y0372250D03*
X0498338Y0392750D03*
X0509362Y0392750D03*
X0417362Y0392750D03*
X0406338Y0392750D03*
X0406338Y0372250D03*
X0417362Y0372250D03*
X0325362Y0372250D03*
X0314338Y0372250D03*
X0314338Y0392750D03*
X0325362Y0392750D03*
X0233362Y0392750D03*
X0222338Y0392750D03*
X0222338Y0372250D03*
X0233362Y0372250D03*
X0141362Y0372250D03*
X0130338Y0372250D03*
X0130338Y0392750D03*
X0141362Y0392750D03*
X0049362Y0392750D03*
X0038338Y0392750D03*
X0038338Y0372250D03*
X0049362Y0372250D03*
X0049362Y0474250D03*
X0038338Y0474250D03*
X0038338Y0494750D03*
X0049362Y0494750D03*
X0130338Y0494750D03*
X0141362Y0494750D03*
X0141362Y0474250D03*
X0130338Y0474250D03*
X0222338Y0474250D03*
X0233362Y0474250D03*
X0233362Y0494750D03*
X0222338Y0494750D03*
X0314338Y0494750D03*
X0325362Y0494750D03*
X0325362Y0474250D03*
X0314338Y0474250D03*
X0406338Y0474250D03*
X0417362Y0474250D03*
X0417362Y0494750D03*
X0406338Y0494750D03*
X0498338Y0494750D03*
X0509362Y0494750D03*
X0509362Y0474250D03*
X0498338Y0474250D03*
X0590338Y0474250D03*
X0601362Y0474250D03*
X0601362Y0494750D03*
X0590338Y0494750D03*
X0682338Y0494750D03*
X0693362Y0494750D03*
X0693362Y0474250D03*
X0682338Y0474250D03*
D11*
X0684396Y0484250D03*
X0690804Y0484250D03*
X0697496Y0484250D03*
X0704904Y0485850D03*
X0711596Y0485850D03*
X0711596Y0494350D03*
X0704904Y0494350D03*
X0704904Y0502850D03*
X0711596Y0502850D03*
X0692196Y0504750D03*
X0685504Y0504750D03*
X0664596Y0496550D03*
X0657904Y0496550D03*
X0642096Y0488850D03*
X0635404Y0488850D03*
X0619596Y0485850D03*
X0612904Y0485850D03*
X0605496Y0484250D03*
X0598804Y0484250D03*
X0592396Y0484250D03*
X0585704Y0484250D03*
X0572596Y0496550D03*
X0565904Y0496550D03*
X0550096Y0488850D03*
X0543404Y0488850D03*
X0527596Y0485850D03*
X0520904Y0485850D03*
X0513496Y0484250D03*
X0506804Y0484250D03*
X0500396Y0484250D03*
X0493704Y0484250D03*
X0480596Y0496550D03*
X0473904Y0496550D03*
X0458096Y0488850D03*
X0451404Y0488850D03*
X0435596Y0485850D03*
X0428904Y0485850D03*
X0421496Y0484250D03*
X0414804Y0484250D03*
X0408396Y0484250D03*
X0401704Y0484250D03*
X0388596Y0496550D03*
X0381904Y0496550D03*
X0366096Y0488850D03*
X0359404Y0488850D03*
X0343596Y0485850D03*
X0336904Y0485850D03*
X0329496Y0484250D03*
X0322804Y0484250D03*
X0316396Y0484250D03*
X0309704Y0484250D03*
X0296596Y0496550D03*
X0289904Y0496550D03*
X0274096Y0488850D03*
X0267404Y0488850D03*
X0251596Y0485850D03*
X0244904Y0485850D03*
X0237496Y0484250D03*
X0230804Y0484250D03*
X0224396Y0484250D03*
X0217704Y0484250D03*
X0204596Y0496550D03*
X0197904Y0496550D03*
X0182096Y0488850D03*
X0175404Y0488850D03*
X0159596Y0485850D03*
X0152904Y0485850D03*
X0145496Y0484250D03*
X0138804Y0484250D03*
X0132396Y0484250D03*
X0125704Y0484250D03*
X0112596Y0496550D03*
X0105904Y0496550D03*
X0090096Y0488850D03*
X0083404Y0488850D03*
X0067596Y0485850D03*
X0060904Y0485850D03*
X0053496Y0484250D03*
X0046804Y0484250D03*
X0040396Y0484250D03*
X0033704Y0484250D03*
X0041504Y0504750D03*
X0048196Y0504750D03*
X0060904Y0502850D03*
X0067596Y0502850D03*
X0067596Y0494350D03*
X0060904Y0494350D03*
X0133504Y0504750D03*
X0140196Y0504750D03*
X0152904Y0502850D03*
X0159596Y0502850D03*
X0159596Y0494350D03*
X0152904Y0494350D03*
X0225504Y0504750D03*
X0232196Y0504750D03*
X0244904Y0502850D03*
X0251596Y0502850D03*
X0251596Y0494350D03*
X0244904Y0494350D03*
X0317504Y0504750D03*
X0324196Y0504750D03*
X0336904Y0502850D03*
X0343596Y0502850D03*
X0343596Y0494350D03*
X0336904Y0494350D03*
X0409504Y0504750D03*
X0416196Y0504750D03*
X0428904Y0502850D03*
X0435596Y0502850D03*
X0435596Y0494350D03*
X0428904Y0494350D03*
X0501504Y0504750D03*
X0508196Y0504750D03*
X0520904Y0502850D03*
X0527596Y0502850D03*
X0527596Y0494350D03*
X0520904Y0494350D03*
X0593504Y0504750D03*
X0600196Y0504750D03*
X0612904Y0502850D03*
X0619596Y0502850D03*
X0619596Y0494350D03*
X0612904Y0494350D03*
X0677704Y0484250D03*
X0727404Y0488850D03*
X0734096Y0488850D03*
X0749904Y0496550D03*
X0756596Y0496550D03*
X0711596Y0400850D03*
X0704904Y0400850D03*
X0704904Y0392350D03*
X0711596Y0392350D03*
X0711596Y0383850D03*
X0704904Y0383850D03*
X0697496Y0382250D03*
X0690804Y0382250D03*
X0684396Y0382250D03*
X0677704Y0382250D03*
X0664596Y0394550D03*
X0657904Y0394550D03*
X0642096Y0386850D03*
X0635404Y0386850D03*
X0619596Y0383850D03*
X0612904Y0383850D03*
X0605496Y0382250D03*
X0598804Y0382250D03*
X0592396Y0382250D03*
X0585704Y0382250D03*
X0572596Y0394550D03*
X0565904Y0394550D03*
X0550096Y0386850D03*
X0543404Y0386850D03*
X0527596Y0383850D03*
X0520904Y0383850D03*
X0513496Y0382250D03*
X0506804Y0382250D03*
X0500396Y0382250D03*
X0493704Y0382250D03*
X0480596Y0394550D03*
X0473904Y0394550D03*
X0458096Y0386850D03*
X0451404Y0386850D03*
X0435596Y0383850D03*
X0428904Y0383850D03*
X0421496Y0382250D03*
X0414804Y0382250D03*
X0408396Y0382250D03*
X0401704Y0382250D03*
X0388596Y0394550D03*
X0381904Y0394550D03*
X0366096Y0386850D03*
X0359404Y0386850D03*
X0343596Y0383850D03*
X0336904Y0383850D03*
X0329496Y0382250D03*
X0322804Y0382250D03*
X0316396Y0382250D03*
X0309704Y0382250D03*
X0296596Y0394550D03*
X0289904Y0394550D03*
X0274096Y0386850D03*
X0267404Y0386850D03*
X0251596Y0383850D03*
X0244904Y0383850D03*
X0237496Y0382250D03*
X0230804Y0382250D03*
X0224396Y0382250D03*
X0217704Y0382250D03*
X0204596Y0394550D03*
X0197904Y0394550D03*
X0182096Y0386850D03*
X0175404Y0386850D03*
X0159596Y0383850D03*
X0152904Y0383850D03*
X0145496Y0382250D03*
X0138804Y0382250D03*
X0132396Y0382250D03*
X0125704Y0382250D03*
X0112596Y0394550D03*
X0105904Y0394550D03*
X0090096Y0386850D03*
X0083404Y0386850D03*
X0067596Y0383850D03*
X0060904Y0383850D03*
X0053496Y0382250D03*
X0046804Y0382250D03*
X0040396Y0382250D03*
X0033704Y0382250D03*
X0041504Y0402750D03*
X0048196Y0402750D03*
X0060904Y0400850D03*
X0067596Y0400850D03*
X0067596Y0392350D03*
X0060904Y0392350D03*
X0133504Y0402750D03*
X0140196Y0402750D03*
X0152904Y0400850D03*
X0159596Y0400850D03*
X0159596Y0392350D03*
X0152904Y0392350D03*
X0225504Y0402750D03*
X0232196Y0402750D03*
X0244904Y0400850D03*
X0251596Y0400850D03*
X0251596Y0392350D03*
X0244904Y0392350D03*
X0317504Y0402750D03*
X0324196Y0402750D03*
X0336904Y0400850D03*
X0343596Y0400850D03*
X0343596Y0392350D03*
X0336904Y0392350D03*
X0409504Y0402750D03*
X0416196Y0402750D03*
X0428904Y0400850D03*
X0435596Y0400850D03*
X0435596Y0392350D03*
X0428904Y0392350D03*
X0501504Y0402750D03*
X0508196Y0402750D03*
X0520904Y0400850D03*
X0527596Y0400850D03*
X0527596Y0392350D03*
X0520904Y0392350D03*
X0593504Y0402750D03*
X0600196Y0402750D03*
X0612904Y0400850D03*
X0619596Y0400850D03*
X0619596Y0392350D03*
X0612904Y0392350D03*
X0685504Y0402750D03*
X0692196Y0402750D03*
X0727404Y0386850D03*
X0734096Y0386850D03*
X0749904Y0394550D03*
X0756596Y0394550D03*
X0711596Y0298850D03*
X0704904Y0298850D03*
X0704904Y0290350D03*
X0711596Y0290350D03*
X0711596Y0281850D03*
X0704904Y0281850D03*
X0697496Y0280250D03*
X0690804Y0280250D03*
X0684396Y0280250D03*
X0677704Y0280250D03*
X0664596Y0292550D03*
X0657904Y0292550D03*
X0642096Y0284850D03*
X0635404Y0284850D03*
X0619596Y0281850D03*
X0612904Y0281850D03*
X0605496Y0280250D03*
X0598804Y0280250D03*
X0592396Y0280250D03*
X0585704Y0280250D03*
X0572596Y0292550D03*
X0565904Y0292550D03*
X0550096Y0284850D03*
X0543404Y0284850D03*
X0527596Y0281850D03*
X0520904Y0281850D03*
X0513496Y0280250D03*
X0506804Y0280250D03*
X0500396Y0280250D03*
X0493704Y0280250D03*
X0480596Y0292550D03*
X0473904Y0292550D03*
X0458096Y0284850D03*
X0451404Y0284850D03*
X0435596Y0281850D03*
X0428904Y0281850D03*
X0421496Y0280250D03*
X0414804Y0280250D03*
X0408396Y0280250D03*
X0401704Y0280250D03*
X0388596Y0292550D03*
X0381904Y0292550D03*
X0366096Y0284850D03*
X0359404Y0284850D03*
X0343596Y0281850D03*
X0336904Y0281850D03*
X0329496Y0280250D03*
X0322804Y0280250D03*
X0316396Y0280250D03*
X0309704Y0280250D03*
X0296596Y0292550D03*
X0289904Y0292550D03*
X0274096Y0284850D03*
X0267404Y0284850D03*
X0251596Y0281850D03*
X0244904Y0281850D03*
X0237496Y0280250D03*
X0230804Y0280250D03*
X0224396Y0280250D03*
X0217704Y0280250D03*
X0204596Y0292550D03*
X0197904Y0292550D03*
X0182096Y0284850D03*
X0175404Y0284850D03*
X0159596Y0281850D03*
X0152904Y0281850D03*
X0145496Y0280250D03*
X0138804Y0280250D03*
X0132396Y0280250D03*
X0125704Y0280250D03*
X0112596Y0292550D03*
X0105904Y0292550D03*
X0090096Y0284850D03*
X0083404Y0284850D03*
X0067596Y0281850D03*
X0060904Y0281850D03*
X0053496Y0280250D03*
X0046804Y0280250D03*
X0040396Y0280250D03*
X0033704Y0280250D03*
X0041504Y0300750D03*
X0048196Y0300750D03*
X0060904Y0298850D03*
X0067596Y0298850D03*
X0067596Y0290350D03*
X0060904Y0290350D03*
X0133504Y0300750D03*
X0140196Y0300750D03*
X0152904Y0298850D03*
X0159596Y0298850D03*
X0159596Y0290350D03*
X0152904Y0290350D03*
X0225504Y0300750D03*
X0232196Y0300750D03*
X0244904Y0298850D03*
X0251596Y0298850D03*
X0251596Y0290350D03*
X0244904Y0290350D03*
X0317504Y0300750D03*
X0324196Y0300750D03*
X0336904Y0298850D03*
X0343596Y0298850D03*
X0343596Y0290350D03*
X0336904Y0290350D03*
X0409504Y0300750D03*
X0416196Y0300750D03*
X0428904Y0298850D03*
X0435596Y0298850D03*
X0435596Y0290350D03*
X0428904Y0290350D03*
X0501504Y0300750D03*
X0508196Y0300750D03*
X0520904Y0298850D03*
X0527596Y0298850D03*
X0527596Y0290350D03*
X0520904Y0290350D03*
X0593504Y0300750D03*
X0600196Y0300750D03*
X0612904Y0298850D03*
X0619596Y0298850D03*
X0619596Y0290350D03*
X0612904Y0290350D03*
X0685504Y0300750D03*
X0692196Y0300750D03*
X0727404Y0284850D03*
X0734096Y0284850D03*
X0749904Y0292550D03*
X0756596Y0292550D03*
X0711596Y0196850D03*
X0704904Y0196850D03*
X0704904Y0188350D03*
X0711596Y0188350D03*
X0711596Y0179850D03*
X0704904Y0179850D03*
X0697496Y0178250D03*
X0690804Y0178250D03*
X0684396Y0178250D03*
X0677704Y0178250D03*
X0664596Y0190550D03*
X0657904Y0190550D03*
X0642096Y0182850D03*
X0635404Y0182850D03*
X0619596Y0179850D03*
X0612904Y0179850D03*
X0605496Y0178250D03*
X0598804Y0178250D03*
X0592396Y0178250D03*
X0585704Y0178250D03*
X0572596Y0190550D03*
X0565904Y0190550D03*
X0550096Y0182850D03*
X0543404Y0182850D03*
X0527596Y0179850D03*
X0520904Y0179850D03*
X0513496Y0178250D03*
X0506804Y0178250D03*
X0500396Y0178250D03*
X0493704Y0178250D03*
X0480596Y0190550D03*
X0473904Y0190550D03*
X0458096Y0182850D03*
X0451404Y0182850D03*
X0435596Y0179850D03*
X0428904Y0179850D03*
X0421496Y0178250D03*
X0414804Y0178250D03*
X0408396Y0178250D03*
X0401704Y0178250D03*
X0388596Y0190550D03*
X0381904Y0190550D03*
X0366096Y0182850D03*
X0359404Y0182850D03*
X0343596Y0179850D03*
X0336904Y0179850D03*
X0329496Y0178250D03*
X0322804Y0178250D03*
X0316396Y0178250D03*
X0309704Y0178250D03*
X0296596Y0190550D03*
X0289904Y0190550D03*
X0274096Y0182850D03*
X0267404Y0182850D03*
X0251596Y0179850D03*
X0244904Y0179850D03*
X0237496Y0178250D03*
X0230804Y0178250D03*
X0224396Y0178250D03*
X0217704Y0178250D03*
X0204596Y0190550D03*
X0197904Y0190550D03*
X0182096Y0182850D03*
X0175404Y0182850D03*
X0159596Y0179850D03*
X0152904Y0179850D03*
X0145496Y0178250D03*
X0138804Y0178250D03*
X0132396Y0178250D03*
X0125704Y0178250D03*
X0112596Y0190550D03*
X0105904Y0190550D03*
X0090096Y0182850D03*
X0083404Y0182850D03*
X0067596Y0179850D03*
X0060904Y0179850D03*
X0053496Y0178250D03*
X0046804Y0178250D03*
X0040396Y0178250D03*
X0033704Y0178250D03*
X0041504Y0198750D03*
X0048196Y0198750D03*
X0060904Y0196850D03*
X0067596Y0196850D03*
X0067596Y0188350D03*
X0060904Y0188350D03*
X0133504Y0198750D03*
X0140196Y0198750D03*
X0152904Y0196850D03*
X0159596Y0196850D03*
X0159596Y0188350D03*
X0152904Y0188350D03*
X0225504Y0198750D03*
X0232196Y0198750D03*
X0244904Y0196850D03*
X0251596Y0196850D03*
X0251596Y0188350D03*
X0244904Y0188350D03*
X0317504Y0198750D03*
X0324196Y0198750D03*
X0336904Y0196850D03*
X0343596Y0196850D03*
X0343596Y0188350D03*
X0336904Y0188350D03*
X0409504Y0198750D03*
X0416196Y0198750D03*
X0428904Y0196850D03*
X0435596Y0196850D03*
X0435596Y0188350D03*
X0428904Y0188350D03*
X0501504Y0198750D03*
X0508196Y0198750D03*
X0520904Y0196850D03*
X0527596Y0196850D03*
X0527596Y0188350D03*
X0520904Y0188350D03*
X0593504Y0198750D03*
X0600196Y0198750D03*
X0612904Y0196850D03*
X0619596Y0196850D03*
X0619596Y0188350D03*
X0612904Y0188350D03*
X0685504Y0198750D03*
X0692196Y0198750D03*
X0727404Y0182850D03*
X0734096Y0182850D03*
X0749904Y0190550D03*
X0756596Y0190550D03*
X0711596Y0094850D03*
X0704904Y0094850D03*
X0704904Y0086350D03*
X0711596Y0086350D03*
X0711596Y0077850D03*
X0704904Y0077850D03*
X0697496Y0076250D03*
X0690804Y0076250D03*
X0684396Y0076250D03*
X0677704Y0076250D03*
X0664596Y0088550D03*
X0657904Y0088550D03*
X0642096Y0080850D03*
X0635404Y0080850D03*
X0619596Y0077850D03*
X0612904Y0077850D03*
X0605496Y0076250D03*
X0598804Y0076250D03*
X0592396Y0076250D03*
X0585704Y0076250D03*
X0572596Y0088550D03*
X0565904Y0088550D03*
X0550096Y0080850D03*
X0543404Y0080850D03*
X0527596Y0077850D03*
X0520904Y0077850D03*
X0513496Y0076250D03*
X0506804Y0076250D03*
X0500396Y0076250D03*
X0493704Y0076250D03*
X0480596Y0088550D03*
X0473904Y0088550D03*
X0458096Y0080850D03*
X0451404Y0080850D03*
X0435596Y0077850D03*
X0428904Y0077850D03*
X0421496Y0076250D03*
X0414804Y0076250D03*
X0408396Y0076250D03*
X0401704Y0076250D03*
X0388596Y0088550D03*
X0381904Y0088550D03*
X0366096Y0080850D03*
X0359404Y0080850D03*
X0343596Y0077850D03*
X0336904Y0077850D03*
X0329496Y0076250D03*
X0322804Y0076250D03*
X0316396Y0076250D03*
X0309704Y0076250D03*
X0296596Y0088550D03*
X0289904Y0088550D03*
X0274096Y0080850D03*
X0267404Y0080850D03*
X0251596Y0077850D03*
X0244904Y0077850D03*
X0237496Y0076250D03*
X0230804Y0076250D03*
X0224396Y0076250D03*
X0217704Y0076250D03*
X0204596Y0088550D03*
X0197904Y0088550D03*
X0182096Y0080850D03*
X0175404Y0080850D03*
X0159596Y0077850D03*
X0152904Y0077850D03*
X0145496Y0076250D03*
X0138804Y0076250D03*
X0132396Y0076250D03*
X0125704Y0076250D03*
X0112596Y0088550D03*
X0105904Y0088550D03*
X0090096Y0080850D03*
X0083404Y0080850D03*
X0067596Y0077850D03*
X0060904Y0077850D03*
X0053496Y0076250D03*
X0046804Y0076250D03*
X0040396Y0076250D03*
X0033704Y0076250D03*
X0041504Y0096750D03*
X0048196Y0096750D03*
X0060904Y0094850D03*
X0067596Y0094850D03*
X0067596Y0086350D03*
X0060904Y0086350D03*
X0133504Y0096750D03*
X0140196Y0096750D03*
X0152904Y0094850D03*
X0159596Y0094850D03*
X0159596Y0086350D03*
X0152904Y0086350D03*
X0225504Y0096750D03*
X0232196Y0096750D03*
X0244904Y0094850D03*
X0251596Y0094850D03*
X0251596Y0086350D03*
X0244904Y0086350D03*
X0317504Y0096750D03*
X0324196Y0096750D03*
X0336904Y0094850D03*
X0343596Y0094850D03*
X0343596Y0086350D03*
X0336904Y0086350D03*
X0409504Y0096750D03*
X0416196Y0096750D03*
X0428904Y0094850D03*
X0435596Y0094850D03*
X0435596Y0086350D03*
X0428904Y0086350D03*
X0501504Y0096750D03*
X0508196Y0096750D03*
X0520904Y0094850D03*
X0527596Y0094850D03*
X0527596Y0086350D03*
X0520904Y0086350D03*
X0593504Y0096750D03*
X0600196Y0096750D03*
X0612904Y0094850D03*
X0619596Y0094850D03*
X0619596Y0086350D03*
X0612904Y0086350D03*
X0685504Y0096750D03*
X0692196Y0096750D03*
X0727404Y0080850D03*
X0734096Y0080850D03*
X0749904Y0088550D03*
X0756596Y0088550D03*
D12*
X0756850Y0095004D03*
X0756850Y0101696D03*
X0749650Y0101696D03*
X0749650Y0095004D03*
X0750250Y0081696D03*
X0750250Y0075004D03*
X0747350Y0068596D03*
X0747350Y0061904D03*
X0737350Y0061904D03*
X0737350Y0068596D03*
X0741750Y0075504D03*
X0741750Y0082196D03*
X0717350Y0068596D03*
X0717350Y0061904D03*
X0707350Y0061904D03*
X0707350Y0068596D03*
X0704650Y0101304D03*
X0704650Y0107996D03*
X0711850Y0107996D03*
X0711850Y0101304D03*
X0664850Y0101696D03*
X0664850Y0095004D03*
X0657650Y0095004D03*
X0657650Y0101696D03*
X0658250Y0081696D03*
X0658250Y0075004D03*
X0655350Y0068596D03*
X0655350Y0061904D03*
X0645350Y0061904D03*
X0645350Y0068596D03*
X0649750Y0075504D03*
X0649750Y0082196D03*
X0625350Y0068596D03*
X0625350Y0061904D03*
X0615350Y0061904D03*
X0615350Y0068596D03*
X0612650Y0101304D03*
X0612650Y0107996D03*
X0619850Y0107996D03*
X0619850Y0101304D03*
X0572850Y0101696D03*
X0572850Y0095004D03*
X0565650Y0095004D03*
X0565650Y0101696D03*
X0566250Y0081696D03*
X0566250Y0075004D03*
X0563350Y0068596D03*
X0563350Y0061904D03*
X0553350Y0061904D03*
X0553350Y0068596D03*
X0557750Y0075504D03*
X0557750Y0082196D03*
X0533350Y0068596D03*
X0533350Y0061904D03*
X0523350Y0061904D03*
X0523350Y0068596D03*
X0520650Y0101304D03*
X0520650Y0107996D03*
X0527850Y0107996D03*
X0527850Y0101304D03*
X0480850Y0101696D03*
X0480850Y0095004D03*
X0473650Y0095004D03*
X0473650Y0101696D03*
X0474250Y0081696D03*
X0474250Y0075004D03*
X0471350Y0068596D03*
X0471350Y0061904D03*
X0461350Y0061904D03*
X0461350Y0068596D03*
X0465750Y0075504D03*
X0465750Y0082196D03*
X0441350Y0068596D03*
X0441350Y0061904D03*
X0431350Y0061904D03*
X0431350Y0068596D03*
X0428650Y0101304D03*
X0428650Y0107996D03*
X0435850Y0107996D03*
X0435850Y0101304D03*
X0388850Y0101696D03*
X0388850Y0095004D03*
X0381650Y0095004D03*
X0381650Y0101696D03*
X0382250Y0081696D03*
X0382250Y0075004D03*
X0379350Y0068596D03*
X0379350Y0061904D03*
X0369350Y0061904D03*
X0369350Y0068596D03*
X0373750Y0075504D03*
X0373750Y0082196D03*
X0349350Y0068596D03*
X0349350Y0061904D03*
X0339350Y0061904D03*
X0339350Y0068596D03*
X0336650Y0101304D03*
X0336650Y0107996D03*
X0343850Y0107996D03*
X0343850Y0101304D03*
X0296850Y0101696D03*
X0296850Y0095004D03*
X0289650Y0095004D03*
X0289650Y0101696D03*
X0290250Y0081696D03*
X0290250Y0075004D03*
X0287350Y0068596D03*
X0287350Y0061904D03*
X0277350Y0061904D03*
X0277350Y0068596D03*
X0281750Y0075504D03*
X0281750Y0082196D03*
X0257350Y0068596D03*
X0257350Y0061904D03*
X0247350Y0061904D03*
X0247350Y0068596D03*
X0244650Y0101304D03*
X0244650Y0107996D03*
X0251850Y0107996D03*
X0251850Y0101304D03*
X0204850Y0101696D03*
X0204850Y0095004D03*
X0197650Y0095004D03*
X0197650Y0101696D03*
X0198250Y0081696D03*
X0198250Y0075004D03*
X0195350Y0068596D03*
X0195350Y0061904D03*
X0185350Y0061904D03*
X0185350Y0068596D03*
X0189750Y0075504D03*
X0189750Y0082196D03*
X0165350Y0068596D03*
X0165350Y0061904D03*
X0155350Y0061904D03*
X0155350Y0068596D03*
X0112850Y0095004D03*
X0112850Y0101696D03*
X0105650Y0101696D03*
X0105650Y0095004D03*
X0106250Y0081696D03*
X0106250Y0075004D03*
X0103350Y0068596D03*
X0103350Y0061904D03*
X0093350Y0061904D03*
X0093350Y0068596D03*
X0097750Y0075504D03*
X0097750Y0082196D03*
X0073350Y0068596D03*
X0073350Y0061904D03*
X0063350Y0061904D03*
X0063350Y0068596D03*
X0060650Y0101304D03*
X0060650Y0107996D03*
X0067850Y0107996D03*
X0067850Y0101304D03*
X0152650Y0101304D03*
X0152650Y0107996D03*
X0159850Y0107996D03*
X0159850Y0101304D03*
X0155350Y0163904D03*
X0155350Y0170596D03*
X0165350Y0170596D03*
X0165350Y0163904D03*
X0185350Y0163904D03*
X0185350Y0170596D03*
X0189750Y0177504D03*
X0189750Y0184196D03*
X0198250Y0183696D03*
X0198250Y0177004D03*
X0195350Y0170596D03*
X0195350Y0163904D03*
X0197650Y0197004D03*
X0197650Y0203696D03*
X0204850Y0203696D03*
X0204850Y0197004D03*
X0244650Y0203304D03*
X0244650Y0209996D03*
X0251850Y0209996D03*
X0251850Y0203304D03*
X0281750Y0184196D03*
X0281750Y0177504D03*
X0277350Y0170596D03*
X0277350Y0163904D03*
X0287350Y0163904D03*
X0287350Y0170596D03*
X0290250Y0177004D03*
X0290250Y0183696D03*
X0289650Y0197004D03*
X0289650Y0203696D03*
X0296850Y0203696D03*
X0296850Y0197004D03*
X0336650Y0203304D03*
X0336650Y0209996D03*
X0343850Y0209996D03*
X0343850Y0203304D03*
X0373750Y0184196D03*
X0373750Y0177504D03*
X0369350Y0170596D03*
X0369350Y0163904D03*
X0379350Y0163904D03*
X0379350Y0170596D03*
X0382250Y0177004D03*
X0382250Y0183696D03*
X0381650Y0197004D03*
X0381650Y0203696D03*
X0388850Y0203696D03*
X0388850Y0197004D03*
X0349350Y0170596D03*
X0349350Y0163904D03*
X0339350Y0163904D03*
X0339350Y0170596D03*
X0257350Y0170596D03*
X0257350Y0163904D03*
X0247350Y0163904D03*
X0247350Y0170596D03*
X0159850Y0203304D03*
X0159850Y0209996D03*
X0152650Y0209996D03*
X0152650Y0203304D03*
X0112850Y0203696D03*
X0112850Y0197004D03*
X0105650Y0197004D03*
X0105650Y0203696D03*
X0106250Y0183696D03*
X0106250Y0177004D03*
X0103350Y0170596D03*
X0103350Y0163904D03*
X0093350Y0163904D03*
X0093350Y0170596D03*
X0097750Y0177504D03*
X0097750Y0184196D03*
X0073350Y0170596D03*
X0073350Y0163904D03*
X0063350Y0163904D03*
X0063350Y0170596D03*
X0060650Y0203304D03*
X0060650Y0209996D03*
X0067850Y0209996D03*
X0067850Y0203304D03*
X0063350Y0265904D03*
X0073350Y0265904D03*
X0073350Y0272596D03*
X0063350Y0272596D03*
X0093350Y0272596D03*
X0097750Y0279504D03*
X0097750Y0286196D03*
X0106250Y0285696D03*
X0106250Y0279004D03*
X0103350Y0272596D03*
X0103350Y0265904D03*
X0093350Y0265904D03*
X0105650Y0299004D03*
X0105650Y0305696D03*
X0112850Y0305696D03*
X0112850Y0299004D03*
X0152650Y0305304D03*
X0152650Y0311996D03*
X0159850Y0311996D03*
X0159850Y0305304D03*
X0189750Y0286196D03*
X0189750Y0279504D03*
X0185350Y0272596D03*
X0195350Y0272596D03*
X0198250Y0279004D03*
X0198250Y0285696D03*
X0197650Y0299004D03*
X0197650Y0305696D03*
X0204850Y0305696D03*
X0204850Y0299004D03*
X0165350Y0272596D03*
X0165350Y0265904D03*
X0155350Y0265904D03*
X0155350Y0272596D03*
X0185350Y0265904D03*
X0195350Y0265904D03*
X0247350Y0265904D03*
X0257350Y0265904D03*
X0257350Y0272596D03*
X0247350Y0272596D03*
X0277350Y0272596D03*
X0281750Y0279504D03*
X0281750Y0286196D03*
X0290250Y0285696D03*
X0290250Y0279004D03*
X0287350Y0272596D03*
X0287350Y0265904D03*
X0277350Y0265904D03*
X0289650Y0299004D03*
X0289650Y0305696D03*
X0296850Y0305696D03*
X0296850Y0299004D03*
X0336650Y0305304D03*
X0336650Y0311996D03*
X0343850Y0311996D03*
X0343850Y0305304D03*
X0373750Y0286196D03*
X0373750Y0279504D03*
X0369350Y0272596D03*
X0379350Y0272596D03*
X0382250Y0279004D03*
X0382250Y0285696D03*
X0381650Y0299004D03*
X0381650Y0305696D03*
X0388850Y0305696D03*
X0388850Y0299004D03*
X0349350Y0272596D03*
X0339350Y0272596D03*
X0339350Y0265904D03*
X0349350Y0265904D03*
X0369350Y0265904D03*
X0379350Y0265904D03*
X0431350Y0265904D03*
X0441350Y0265904D03*
X0441350Y0272596D03*
X0431350Y0272596D03*
X0461350Y0272596D03*
X0465750Y0279504D03*
X0465750Y0286196D03*
X0474250Y0285696D03*
X0474250Y0279004D03*
X0471350Y0272596D03*
X0471350Y0265904D03*
X0461350Y0265904D03*
X0473650Y0299004D03*
X0473650Y0305696D03*
X0480850Y0305696D03*
X0480850Y0299004D03*
X0520650Y0305304D03*
X0520650Y0311996D03*
X0527850Y0311996D03*
X0527850Y0305304D03*
X0557750Y0286196D03*
X0557750Y0279504D03*
X0553350Y0272596D03*
X0553350Y0265904D03*
X0563350Y0265904D03*
X0563350Y0272596D03*
X0566250Y0279004D03*
X0566250Y0285696D03*
X0565650Y0299004D03*
X0565650Y0305696D03*
X0572850Y0305696D03*
X0572850Y0299004D03*
X0612650Y0305304D03*
X0612650Y0311996D03*
X0619850Y0311996D03*
X0619850Y0305304D03*
X0649750Y0286196D03*
X0649750Y0279504D03*
X0645350Y0272596D03*
X0655350Y0272596D03*
X0658250Y0279004D03*
X0658250Y0285696D03*
X0657650Y0299004D03*
X0657650Y0305696D03*
X0664850Y0305696D03*
X0664850Y0299004D03*
X0625350Y0272596D03*
X0615350Y0272596D03*
X0615350Y0265904D03*
X0625350Y0265904D03*
X0645350Y0265904D03*
X0655350Y0265904D03*
X0707350Y0265904D03*
X0717350Y0265904D03*
X0717350Y0272596D03*
X0707350Y0272596D03*
X0737350Y0272596D03*
X0741750Y0279504D03*
X0741750Y0286196D03*
X0750250Y0285696D03*
X0750250Y0279004D03*
X0747350Y0272596D03*
X0747350Y0265904D03*
X0737350Y0265904D03*
X0749650Y0299004D03*
X0749650Y0305696D03*
X0756850Y0305696D03*
X0756850Y0299004D03*
X0711850Y0305304D03*
X0711850Y0311996D03*
X0704650Y0311996D03*
X0704650Y0305304D03*
X0707350Y0367904D03*
X0707350Y0374596D03*
X0717350Y0374596D03*
X0717350Y0367904D03*
X0737350Y0367904D03*
X0737350Y0374596D03*
X0747350Y0374596D03*
X0747350Y0367904D03*
X0750250Y0381004D03*
X0741750Y0381504D03*
X0741750Y0388196D03*
X0750250Y0387696D03*
X0749650Y0401004D03*
X0749650Y0407696D03*
X0756850Y0407696D03*
X0756850Y0401004D03*
X0711850Y0407304D03*
X0711850Y0413996D03*
X0704650Y0413996D03*
X0704650Y0407304D03*
X0664850Y0407696D03*
X0664850Y0401004D03*
X0657650Y0401004D03*
X0657650Y0407696D03*
X0658250Y0387696D03*
X0649750Y0388196D03*
X0649750Y0381504D03*
X0658250Y0381004D03*
X0655350Y0374596D03*
X0655350Y0367904D03*
X0645350Y0367904D03*
X0645350Y0374596D03*
X0625350Y0374596D03*
X0625350Y0367904D03*
X0615350Y0367904D03*
X0615350Y0374596D03*
X0572850Y0401004D03*
X0572850Y0407696D03*
X0565650Y0407696D03*
X0565650Y0401004D03*
X0566250Y0387696D03*
X0557750Y0388196D03*
X0557750Y0381504D03*
X0566250Y0381004D03*
X0563350Y0374596D03*
X0563350Y0367904D03*
X0553350Y0367904D03*
X0553350Y0374596D03*
X0533350Y0374596D03*
X0533350Y0367904D03*
X0523350Y0367904D03*
X0523350Y0374596D03*
X0480850Y0401004D03*
X0480850Y0407696D03*
X0473650Y0407696D03*
X0473650Y0401004D03*
X0474250Y0387696D03*
X0465750Y0388196D03*
X0465750Y0381504D03*
X0474250Y0381004D03*
X0471350Y0374596D03*
X0471350Y0367904D03*
X0461350Y0367904D03*
X0461350Y0374596D03*
X0441350Y0374596D03*
X0441350Y0367904D03*
X0431350Y0367904D03*
X0431350Y0374596D03*
X0382250Y0381004D03*
X0379350Y0374596D03*
X0379350Y0367904D03*
X0369350Y0367904D03*
X0369350Y0374596D03*
X0373750Y0381504D03*
X0373750Y0388196D03*
X0382250Y0387696D03*
X0381650Y0401004D03*
X0381650Y0407696D03*
X0388850Y0407696D03*
X0388850Y0401004D03*
X0428650Y0407304D03*
X0428650Y0413996D03*
X0435850Y0413996D03*
X0435850Y0407304D03*
X0431350Y0469904D03*
X0431350Y0476596D03*
X0441350Y0476596D03*
X0441350Y0469904D03*
X0461350Y0469904D03*
X0461350Y0476596D03*
X0465750Y0483504D03*
X0465750Y0490196D03*
X0474250Y0489696D03*
X0474250Y0483004D03*
X0471350Y0476596D03*
X0471350Y0469904D03*
X0473650Y0503004D03*
X0473650Y0509696D03*
X0480850Y0509696D03*
X0480850Y0503004D03*
X0520650Y0509304D03*
X0520650Y0515996D03*
X0527850Y0515996D03*
X0527850Y0509304D03*
X0557750Y0490196D03*
X0557750Y0483504D03*
X0553350Y0476596D03*
X0553350Y0469904D03*
X0563350Y0469904D03*
X0563350Y0476596D03*
X0566250Y0483004D03*
X0566250Y0489696D03*
X0565650Y0503004D03*
X0565650Y0509696D03*
X0572850Y0509696D03*
X0572850Y0503004D03*
X0612650Y0509304D03*
X0612650Y0515996D03*
X0619850Y0515996D03*
X0619850Y0509304D03*
X0649750Y0490196D03*
X0649750Y0483504D03*
X0645350Y0476596D03*
X0645350Y0469904D03*
X0655350Y0469904D03*
X0655350Y0476596D03*
X0658250Y0483004D03*
X0658250Y0489696D03*
X0657650Y0503004D03*
X0657650Y0509696D03*
X0664850Y0509696D03*
X0664850Y0503004D03*
X0704650Y0509304D03*
X0704650Y0515996D03*
X0711850Y0515996D03*
X0711850Y0509304D03*
X0741750Y0490196D03*
X0741750Y0483504D03*
X0737350Y0476596D03*
X0737350Y0469904D03*
X0747350Y0469904D03*
X0747350Y0476596D03*
X0750250Y0483004D03*
X0750250Y0489696D03*
X0749650Y0503004D03*
X0749650Y0509696D03*
X0756850Y0509696D03*
X0756850Y0503004D03*
X0717350Y0476596D03*
X0717350Y0469904D03*
X0707350Y0469904D03*
X0707350Y0476596D03*
X0625350Y0476596D03*
X0625350Y0469904D03*
X0615350Y0469904D03*
X0615350Y0476596D03*
X0612650Y0413996D03*
X0612650Y0407304D03*
X0619850Y0407304D03*
X0619850Y0413996D03*
X0533350Y0469904D03*
X0533350Y0476596D03*
X0523350Y0476596D03*
X0523350Y0469904D03*
X0520650Y0413996D03*
X0520650Y0407304D03*
X0527850Y0407304D03*
X0527850Y0413996D03*
X0435850Y0509304D03*
X0435850Y0515996D03*
X0428650Y0515996D03*
X0428650Y0509304D03*
X0388850Y0509696D03*
X0388850Y0503004D03*
X0381650Y0503004D03*
X0381650Y0509696D03*
X0382250Y0489696D03*
X0382250Y0483004D03*
X0379350Y0476596D03*
X0379350Y0469904D03*
X0369350Y0469904D03*
X0369350Y0476596D03*
X0373750Y0483504D03*
X0373750Y0490196D03*
X0349350Y0476596D03*
X0349350Y0469904D03*
X0339350Y0469904D03*
X0339350Y0476596D03*
X0296850Y0503004D03*
X0296850Y0509696D03*
X0289650Y0509696D03*
X0289650Y0503004D03*
X0290250Y0489696D03*
X0290250Y0483004D03*
X0287350Y0476596D03*
X0287350Y0469904D03*
X0277350Y0469904D03*
X0277350Y0476596D03*
X0281750Y0483504D03*
X0281750Y0490196D03*
X0257350Y0476596D03*
X0257350Y0469904D03*
X0247350Y0469904D03*
X0247350Y0476596D03*
X0204850Y0503004D03*
X0204850Y0509696D03*
X0197650Y0509696D03*
X0197650Y0503004D03*
X0198250Y0489696D03*
X0198250Y0483004D03*
X0195350Y0476596D03*
X0195350Y0469904D03*
X0185350Y0469904D03*
X0185350Y0476596D03*
X0189750Y0483504D03*
X0189750Y0490196D03*
X0165350Y0476596D03*
X0165350Y0469904D03*
X0155350Y0469904D03*
X0155350Y0476596D03*
X0106250Y0483004D03*
X0106250Y0489696D03*
X0097750Y0490196D03*
X0097750Y0483504D03*
X0093350Y0476596D03*
X0093350Y0469904D03*
X0103350Y0469904D03*
X0103350Y0476596D03*
X0073350Y0476596D03*
X0073350Y0469904D03*
X0063350Y0469904D03*
X0063350Y0476596D03*
X0105650Y0503004D03*
X0105650Y0509696D03*
X0112850Y0509696D03*
X0112850Y0503004D03*
X0152650Y0509304D03*
X0152650Y0515996D03*
X0159850Y0515996D03*
X0159850Y0509304D03*
X0244650Y0509304D03*
X0244650Y0515996D03*
X0251850Y0515996D03*
X0251850Y0509304D03*
X0336650Y0509304D03*
X0336650Y0515996D03*
X0343850Y0515996D03*
X0343850Y0509304D03*
X0343850Y0413996D03*
X0343850Y0407304D03*
X0336650Y0407304D03*
X0336650Y0413996D03*
X0296850Y0407696D03*
X0296850Y0401004D03*
X0289650Y0401004D03*
X0289650Y0407696D03*
X0290250Y0387696D03*
X0281750Y0388196D03*
X0281750Y0381504D03*
X0290250Y0381004D03*
X0287350Y0374596D03*
X0287350Y0367904D03*
X0277350Y0367904D03*
X0277350Y0374596D03*
X0257350Y0374596D03*
X0257350Y0367904D03*
X0247350Y0367904D03*
X0247350Y0374596D03*
X0204850Y0401004D03*
X0204850Y0407696D03*
X0197650Y0407696D03*
X0197650Y0401004D03*
X0198250Y0387696D03*
X0189750Y0388196D03*
X0189750Y0381504D03*
X0198250Y0381004D03*
X0195350Y0374596D03*
X0195350Y0367904D03*
X0185350Y0367904D03*
X0185350Y0374596D03*
X0165350Y0374596D03*
X0165350Y0367904D03*
X0155350Y0367904D03*
X0155350Y0374596D03*
X0106250Y0381004D03*
X0103350Y0374596D03*
X0103350Y0367904D03*
X0093350Y0367904D03*
X0093350Y0374596D03*
X0097750Y0381504D03*
X0097750Y0388196D03*
X0106250Y0387696D03*
X0105650Y0401004D03*
X0105650Y0407696D03*
X0112850Y0407696D03*
X0112850Y0401004D03*
X0152650Y0407304D03*
X0152650Y0413996D03*
X0159850Y0413996D03*
X0159850Y0407304D03*
X0244650Y0407304D03*
X0244650Y0413996D03*
X0251850Y0413996D03*
X0251850Y0407304D03*
X0339350Y0374596D03*
X0339350Y0367904D03*
X0349350Y0367904D03*
X0349350Y0374596D03*
X0428650Y0311996D03*
X0428650Y0305304D03*
X0435850Y0305304D03*
X0435850Y0311996D03*
X0523350Y0272596D03*
X0533350Y0272596D03*
X0533350Y0265904D03*
X0523350Y0265904D03*
X0520650Y0209996D03*
X0520650Y0203304D03*
X0527850Y0203304D03*
X0527850Y0209996D03*
X0557750Y0184196D03*
X0557750Y0177504D03*
X0553350Y0170596D03*
X0553350Y0163904D03*
X0563350Y0163904D03*
X0563350Y0170596D03*
X0566250Y0177004D03*
X0566250Y0183696D03*
X0565650Y0197004D03*
X0565650Y0203696D03*
X0572850Y0203696D03*
X0572850Y0197004D03*
X0612650Y0203304D03*
X0612650Y0209996D03*
X0619850Y0209996D03*
X0619850Y0203304D03*
X0649750Y0184196D03*
X0649750Y0177504D03*
X0645350Y0170596D03*
X0645350Y0163904D03*
X0655350Y0163904D03*
X0655350Y0170596D03*
X0658250Y0177004D03*
X0658250Y0183696D03*
X0657650Y0197004D03*
X0657650Y0203696D03*
X0664850Y0203696D03*
X0664850Y0197004D03*
X0625350Y0170596D03*
X0625350Y0163904D03*
X0615350Y0163904D03*
X0615350Y0170596D03*
X0533350Y0170596D03*
X0533350Y0163904D03*
X0523350Y0163904D03*
X0523350Y0170596D03*
X0480850Y0197004D03*
X0480850Y0203696D03*
X0473650Y0203696D03*
X0473650Y0197004D03*
X0474250Y0183696D03*
X0474250Y0177004D03*
X0471350Y0170596D03*
X0471350Y0163904D03*
X0461350Y0163904D03*
X0461350Y0170596D03*
X0465750Y0177504D03*
X0465750Y0184196D03*
X0441350Y0170596D03*
X0441350Y0163904D03*
X0431350Y0163904D03*
X0431350Y0170596D03*
X0428650Y0203304D03*
X0428650Y0209996D03*
X0435850Y0209996D03*
X0435850Y0203304D03*
X0251850Y0305304D03*
X0251850Y0311996D03*
X0244650Y0311996D03*
X0244650Y0305304D03*
X0073350Y0367904D03*
X0073350Y0374596D03*
X0063350Y0374596D03*
X0063350Y0367904D03*
X0060650Y0407304D03*
X0060650Y0413996D03*
X0067850Y0413996D03*
X0067850Y0407304D03*
X0067850Y0311996D03*
X0067850Y0305304D03*
X0060650Y0305304D03*
X0060650Y0311996D03*
X0060650Y0509304D03*
X0060650Y0515996D03*
X0067850Y0515996D03*
X0067850Y0509304D03*
X0704650Y0209996D03*
X0704650Y0203304D03*
X0711850Y0203304D03*
X0711850Y0209996D03*
X0749650Y0203696D03*
X0749650Y0197004D03*
X0756850Y0197004D03*
X0756850Y0203696D03*
X0750250Y0183696D03*
X0750250Y0177004D03*
X0747350Y0170596D03*
X0747350Y0163904D03*
X0737350Y0163904D03*
X0737350Y0170596D03*
X0741750Y0177504D03*
X0741750Y0184196D03*
X0717350Y0170596D03*
X0717350Y0163904D03*
X0707350Y0163904D03*
X0707350Y0170596D03*
D13*
X0719726Y0190850D03*
X0719726Y0195850D03*
X0719726Y0200850D03*
X0719726Y0205850D03*
X0741774Y0205850D03*
X0741774Y0200850D03*
X0741774Y0195850D03*
X0741774Y0190850D03*
X0649774Y0190850D03*
X0649774Y0195850D03*
X0649774Y0200850D03*
X0649774Y0205850D03*
X0627726Y0205850D03*
X0627726Y0200850D03*
X0627726Y0195850D03*
X0627726Y0190850D03*
X0557774Y0190850D03*
X0557774Y0195850D03*
X0557774Y0200850D03*
X0557774Y0205850D03*
X0535726Y0205850D03*
X0535726Y0200850D03*
X0535726Y0195850D03*
X0535726Y0190850D03*
X0465774Y0190850D03*
X0465774Y0195850D03*
X0465774Y0200850D03*
X0465774Y0205850D03*
X0443726Y0205850D03*
X0443726Y0200850D03*
X0443726Y0195850D03*
X0443726Y0190850D03*
X0373774Y0190850D03*
X0373774Y0195850D03*
X0373774Y0200850D03*
X0373774Y0205850D03*
X0351726Y0205850D03*
X0351726Y0200850D03*
X0351726Y0195850D03*
X0351726Y0190850D03*
X0281774Y0190850D03*
X0281774Y0195850D03*
X0281774Y0200850D03*
X0281774Y0205850D03*
X0259726Y0205850D03*
X0259726Y0200850D03*
X0259726Y0195850D03*
X0259726Y0190850D03*
X0189774Y0190850D03*
X0189774Y0195850D03*
X0189774Y0200850D03*
X0189774Y0205850D03*
X0167726Y0205850D03*
X0167726Y0200850D03*
X0167726Y0195850D03*
X0167726Y0190850D03*
X0097774Y0190850D03*
X0097774Y0195850D03*
X0097774Y0200850D03*
X0097774Y0205850D03*
X0075726Y0205850D03*
X0075726Y0200850D03*
X0075726Y0195850D03*
X0075726Y0190850D03*
X0075726Y0103850D03*
X0075726Y0098850D03*
X0075726Y0093850D03*
X0075726Y0088850D03*
X0097774Y0088850D03*
X0097774Y0093850D03*
X0097774Y0098850D03*
X0097774Y0103850D03*
X0167726Y0103850D03*
X0167726Y0098850D03*
X0167726Y0093850D03*
X0167726Y0088850D03*
X0189774Y0088850D03*
X0189774Y0093850D03*
X0189774Y0098850D03*
X0189774Y0103850D03*
X0259726Y0103850D03*
X0259726Y0098850D03*
X0259726Y0093850D03*
X0259726Y0088850D03*
X0281774Y0088850D03*
X0281774Y0093850D03*
X0281774Y0098850D03*
X0281774Y0103850D03*
X0351726Y0103850D03*
X0351726Y0098850D03*
X0351726Y0093850D03*
X0351726Y0088850D03*
X0373774Y0088850D03*
X0373774Y0093850D03*
X0373774Y0098850D03*
X0373774Y0103850D03*
X0443726Y0103850D03*
X0443726Y0098850D03*
X0443726Y0093850D03*
X0443726Y0088850D03*
X0465774Y0088850D03*
X0465774Y0093850D03*
X0465774Y0098850D03*
X0465774Y0103850D03*
X0535726Y0103850D03*
X0535726Y0098850D03*
X0535726Y0093850D03*
X0535726Y0088850D03*
X0557774Y0088850D03*
X0557774Y0093850D03*
X0557774Y0098850D03*
X0557774Y0103850D03*
X0627726Y0103850D03*
X0627726Y0098850D03*
X0627726Y0093850D03*
X0627726Y0088850D03*
X0649774Y0088850D03*
X0649774Y0093850D03*
X0649774Y0098850D03*
X0649774Y0103850D03*
X0719726Y0103850D03*
X0719726Y0098850D03*
X0719726Y0093850D03*
X0719726Y0088850D03*
X0741774Y0088850D03*
X0741774Y0093850D03*
X0741774Y0098850D03*
X0741774Y0103850D03*
X0741774Y0292850D03*
X0741774Y0297850D03*
X0741774Y0302850D03*
X0741774Y0307850D03*
X0719726Y0307850D03*
X0719726Y0302850D03*
X0719726Y0297850D03*
X0719726Y0292850D03*
X0649774Y0292850D03*
X0649774Y0297850D03*
X0649774Y0302850D03*
X0649774Y0307850D03*
X0627726Y0307850D03*
X0627726Y0302850D03*
X0627726Y0297850D03*
X0627726Y0292850D03*
X0557774Y0292850D03*
X0557774Y0297850D03*
X0557774Y0302850D03*
X0557774Y0307850D03*
X0535726Y0307850D03*
X0535726Y0302850D03*
X0535726Y0297850D03*
X0535726Y0292850D03*
X0465774Y0292850D03*
X0465774Y0297850D03*
X0465774Y0302850D03*
X0465774Y0307850D03*
X0443726Y0307850D03*
X0443726Y0302850D03*
X0443726Y0297850D03*
X0443726Y0292850D03*
X0373774Y0292850D03*
X0373774Y0297850D03*
X0373774Y0302850D03*
X0373774Y0307850D03*
X0351726Y0307850D03*
X0351726Y0302850D03*
X0351726Y0297850D03*
X0351726Y0292850D03*
X0281774Y0292850D03*
X0281774Y0297850D03*
X0281774Y0302850D03*
X0281774Y0307850D03*
X0259726Y0307850D03*
X0259726Y0302850D03*
X0259726Y0297850D03*
X0259726Y0292850D03*
X0189774Y0292850D03*
X0189774Y0297850D03*
X0189774Y0302850D03*
X0189774Y0307850D03*
X0167726Y0307850D03*
X0167726Y0302850D03*
X0167726Y0297850D03*
X0167726Y0292850D03*
X0097774Y0292850D03*
X0097774Y0297850D03*
X0097774Y0302850D03*
X0097774Y0307850D03*
X0075726Y0307850D03*
X0075726Y0302850D03*
X0075726Y0297850D03*
X0075726Y0292850D03*
X0075726Y0394850D03*
X0075726Y0399850D03*
X0075726Y0404850D03*
X0075726Y0409850D03*
X0097774Y0409850D03*
X0097774Y0404850D03*
X0097774Y0399850D03*
X0097774Y0394850D03*
X0167726Y0394850D03*
X0167726Y0399850D03*
X0167726Y0404850D03*
X0167726Y0409850D03*
X0189774Y0409850D03*
X0189774Y0404850D03*
X0189774Y0399850D03*
X0189774Y0394850D03*
X0259726Y0394850D03*
X0259726Y0399850D03*
X0259726Y0404850D03*
X0259726Y0409850D03*
X0281774Y0409850D03*
X0281774Y0404850D03*
X0281774Y0399850D03*
X0281774Y0394850D03*
X0351726Y0394850D03*
X0351726Y0399850D03*
X0351726Y0404850D03*
X0351726Y0409850D03*
X0373774Y0409850D03*
X0373774Y0404850D03*
X0373774Y0399850D03*
X0373774Y0394850D03*
X0443726Y0394850D03*
X0443726Y0399850D03*
X0443726Y0404850D03*
X0443726Y0409850D03*
X0465774Y0409850D03*
X0465774Y0404850D03*
X0465774Y0399850D03*
X0465774Y0394850D03*
X0535726Y0394850D03*
X0535726Y0399850D03*
X0535726Y0404850D03*
X0535726Y0409850D03*
X0557774Y0409850D03*
X0557774Y0404850D03*
X0557774Y0399850D03*
X0557774Y0394850D03*
X0627726Y0394850D03*
X0627726Y0399850D03*
X0627726Y0404850D03*
X0627726Y0409850D03*
X0649774Y0409850D03*
X0649774Y0404850D03*
X0649774Y0399850D03*
X0649774Y0394850D03*
X0719726Y0394850D03*
X0719726Y0399850D03*
X0719726Y0404850D03*
X0719726Y0409850D03*
X0741774Y0409850D03*
X0741774Y0404850D03*
X0741774Y0399850D03*
X0741774Y0394850D03*
X0741774Y0496850D03*
X0741774Y0501850D03*
X0741774Y0506850D03*
X0741774Y0511850D03*
X0719726Y0511850D03*
X0719726Y0506850D03*
X0719726Y0501850D03*
X0719726Y0496850D03*
X0649774Y0496850D03*
X0649774Y0501850D03*
X0649774Y0506850D03*
X0649774Y0511850D03*
X0627726Y0511850D03*
X0627726Y0506850D03*
X0627726Y0501850D03*
X0627726Y0496850D03*
X0557774Y0496850D03*
X0557774Y0501850D03*
X0557774Y0506850D03*
X0557774Y0511850D03*
X0535726Y0511850D03*
X0535726Y0506850D03*
X0535726Y0501850D03*
X0535726Y0496850D03*
X0465774Y0496850D03*
X0465774Y0501850D03*
X0465774Y0506850D03*
X0465774Y0511850D03*
X0443726Y0511850D03*
X0443726Y0506850D03*
X0443726Y0501850D03*
X0443726Y0496850D03*
X0373774Y0496850D03*
X0373774Y0501850D03*
X0373774Y0506850D03*
X0373774Y0511850D03*
X0351726Y0511850D03*
X0351726Y0506850D03*
X0351726Y0501850D03*
X0351726Y0496850D03*
X0281774Y0496850D03*
X0281774Y0501850D03*
X0281774Y0506850D03*
X0281774Y0511850D03*
X0259726Y0511850D03*
X0259726Y0506850D03*
X0259726Y0501850D03*
X0259726Y0496850D03*
X0189774Y0496850D03*
X0189774Y0501850D03*
X0189774Y0506850D03*
X0189774Y0511850D03*
X0167726Y0511850D03*
X0167726Y0506850D03*
X0167726Y0501850D03*
X0167726Y0496850D03*
X0097774Y0496850D03*
X0097774Y0501850D03*
X0097774Y0506850D03*
X0097774Y0511850D03*
X0075726Y0511850D03*
X0075726Y0506850D03*
X0075726Y0501850D03*
X0075726Y0496850D03*
M02*
